<?xml version="1.0" encoding="UTF-8"?>
<svg version="1.1" xmlns="http://www.w3.org/2000/svg" width="980" height="980">
<path d="M0 0 C323.4 0 646.8 0 980 0 C980 323.4 980 646.8 980 980 C656.6 980 333.2 980 0 980 C0 656.6 0 333.2 0 0 Z " fill="#FEFEFE" transform="translate(0,0)"/>
<path d="M0 0 C12.99247702 10.7329158 20.94803847 26.06549165 23.125 42.6875 C24.7227568 59.97470472 19.45740351 75.90792213 8.95703125 89.4921875 C1.68004294 97.96698097 -6.36521983 104.76056048 -16.875 108.6875 C-17.58914063 108.98527344 -18.30328125 109.28304687 -19.0390625 109.58984375 C-23.01158659 111.20414661 -25.48292693 111.6875 -29.875 111.6875 C-29.875 141.7175 -29.875 171.7475 -29.875 202.6875 C-19.975 202.6875 -10.075 202.6875 0.125 202.6875 C9.125 208.6875 9.125 208.6875 11.125 212.6875 C11.43362607 215.52627753 11.6388041 218.27832701 11.75 221.125 C11.78794678 221.94524658 11.82589355 222.76549316 11.86499023 223.6105957 C12.26736929 233.29962797 12.2118203 242.99256702 12.125 252.6875 C12.68695068 252.8014209 13.24890137 252.9153418 13.82788086 253.03271484 C27.8495506 255.99286149 40.50203467 262.07387189 53.125 268.6875 C53.455 267.6975 53.785 266.7075 54.125 265.6875 C55.69140625 264.14453125 55.69140625 264.14453125 57.6875 262.5 C60.63512642 260.00423788 63.42074066 257.44530903 66.125 254.6875 C69.94918079 250.8106238 73.93416599 247.16518789 78.125 243.6875 C78.77210938 243.13449219 79.41921875 242.58148438 80.0859375 242.01171875 C82.43911526 240.4835056 83.71930266 240.2832295 86.5 240.3125 C87.22960937 240.30476562 87.95921875 240.29703125 88.7109375 240.2890625 C95.55817277 241.41918871 99.61777055 245.82752672 104.1875 250.625 C105.38430902 251.86561043 106.58348025 253.10394697 107.78515625 254.33984375 C108.30730713 254.88632568 108.82945801 255.43280762 109.36743164 255.99584961 C111.50286481 258.05119291 113.80322142 259.84741625 116.125 261.6875 C116.12223462 260.97666197 116.11946924 260.26582394 116.11662006 259.53344536 C116.05034741 242.23176063 116.00071319 224.93010817 115.96956348 207.62832451 C115.95409907 199.26128453 115.93301769 190.89432932 115.89868164 182.52734375 C115.86876624 175.23409917 115.8494219 167.94091597 115.84273452 160.64761174 C115.83882587 156.78636838 115.82964897 152.92530065 115.80780983 149.06411362 C115.78741078 145.42799273 115.78117305 141.79211941 115.78567696 138.15594673 C115.78446126 136.18897974 115.76833701 134.22203956 115.7517395 132.25514221 C115.75586349 131.07732681 115.75998749 129.89951141 115.76423645 128.68600464 C115.76147107 127.6665016 115.75870569 126.64699856 115.75585651 125.59660149 C116.30094009 121.30097259 117.9078351 117.94663074 120.91693115 114.83378601 C123.88487 113.29302482 126.11469994 113.32720295 129.45410156 113.34692383 C130.73512756 113.34715042 132.01615356 113.34737701 133.33599854 113.34761047 C134.72921093 113.36292926 136.12241974 113.37857722 137.515625 113.39453125 C138.94479934 113.40012903 140.37397946 113.40439827 141.80316162 113.40739441 C145.5581461 113.41882899 149.31278046 113.4482838 153.06762695 113.48150635 C156.90180729 113.5122374 160.73604441 113.5259062 164.5703125 113.54101562 C172.08870099 113.5731552 179.60680137 113.6243343 187.125 113.6875 C187.22063736 112.75579483 187.22063736 112.75579483 187.31820679 111.80526733 C187.4044632 110.99216095 187.4907196 110.17905457 187.57958984 109.34130859 C187.7061647 108.13116592 187.7061647 108.13116592 187.83529663 106.89657593 C189.38917231 95.04780325 199.24952407 83.03811443 208.125 75.6875 C224.85622828 63.43864323 240.58118994 59.90384044 261.125 61.6875 C266.11183789 62.59018078 270.58934989 64.45586364 275.125 66.6875 C276.135625 67.16445312 277.14625 67.64140625 278.1875 68.1328125 C280.52940178 69.27123698 282.83556612 70.44782958 285.125 71.6875 C285.125 72.3475 285.125 73.0075 285.125 73.6875 C285.85074219 73.92855469 286.57648437 74.16960937 287.32421875 74.41796875 C297.85595745 79.19176941 305.24916235 91.67712474 309.47265625 101.97265625 C313.93376773 114.87630129 315.96969834 130.92267882 310.125 143.6875 C309.76148438 144.63882813 309.39796875 145.59015625 309.0234375 146.5703125 C306.44365864 153.21116259 303.40524812 158.99521127 299.125 164.6875 C298.68671875 165.29078125 298.2484375 165.8940625 297.796875 166.515625 C291.81243422 174.15094599 283.07144881 180.04544905 274.125 183.6875 C272.578125 184.35458984 272.578125 184.35458984 271 185.03515625 C254.8378476 191.28754064 238.0145587 190.37203728 222.2109375 183.40234375 C206.38134164 175.398365 195.421592 163.18122771 189.125 146.6875 C187.64 141.7375 187.64 141.7375 186.125 136.6875 C170.615 136.6875 155.105 136.6875 139.125 136.6875 C138.96178443 156.02106268 138.8530491 175.3524612 138.84259319 194.686656 C138.83601039 203.66496656 138.80537333 212.64196382 138.71704102 221.61987305 C138.64006323 229.45005397 138.60930546 237.27885919 138.63281661 245.10940629 C138.64367277 249.25193428 138.63222561 253.39155851 138.56531334 257.53362083 C137.36136565 276.74094308 137.36136565 276.74094308 144.78203297 293.4465456 C147.40678675 295.79606275 150.21545623 297.7039492 153.125 299.6875 C155.65731167 303.41937019 155.65379649 307.30360653 155.125 311.6875 C151.99652362 320.52084507 143.6410152 327.38505322 136.9765625 333.66015625 C135.90093088 334.68998847 134.82541113 335.71993753 133.75 336.75 C133.19183594 337.26626953 132.63367188 337.78253906 132.05859375 338.31445312 C129.07229576 340.99078299 129.07229576 340.99078299 128.07421875 344.671875 C128.42097656 345.33703125 128.76773438 346.0021875 129.125 346.6875 C129.59292969 347.62980469 130.06085937 348.57210938 130.54296875 349.54296875 C131.12691406 350.64253906 131.71085938 351.74210937 132.3125 352.875 C135.13390469 358.34450081 137.45586846 363.88323062 139.5 369.6875 C139.75031982 370.39285889 140.00063965 371.09821777 140.25854492 371.82495117 C141.60532366 375.75574751 142.57166819 379.56968188 143.125 383.6875 C144.09695313 383.67589844 145.06890625 383.66429687 146.0703125 383.65234375 C149.86539251 383.61962754 153.65905214 383.63367476 157.45410156 383.66650391 C159.28413846 383.68088994 161.11424274 383.68801398 162.94433594 383.68896484 C165.83917351 383.69923023 168.73082079 383.75180529 171.625 383.8125 C172.98455811 383.80851196 172.98455811 383.80851196 174.37158203 383.80444336 C181.20191554 384.00570433 186.08168047 385.98854206 191.125 390.6875 C196.35100336 401.13950672 193.125 414.00180124 193.125 425.6875 C223.155 425.6875 253.185 425.6875 284.125 425.6875 C284.455 422.7175 284.785 419.7475 285.125 416.6875 C287.64311671 408.87301384 292.1823952 402.16706691 297.125 395.6875 C298.04732422 394.44613281 298.04732422 394.44613281 298.98828125 393.1796875 C307.81078775 382.8894514 322.39118177 374.69407833 336.02001953 373.41601562 C339.06063592 373.32235089 342.08343501 373.32675182 345.125 373.375 C346.14078125 373.37177734 347.1565625 373.36855469 348.203125 373.36523438 C364.65977874 373.48127488 376.56032921 379.15498504 389.125 389.6875 C389.72699219 390.12191406 390.32898438 390.55632812 390.94921875 391.00390625 C400.70732153 398.34989373 407.04193316 411.81584342 409.125 423.6875 C410.14889964 437.62031152 410.22581747 450.89445928 404.125 463.6875 C403.6403125 464.72648437 403.155625 465.76546875 402.65625 466.8359375 C394.51188812 482.36611775 380.97302549 492.28019101 364.59765625 497.9609375 C358.18924479 499.84397784 352.07445474 499.90514434 345.4375 499.9375 C343.87999023 499.9684375 343.87999023 499.9684375 342.29101562 500 C326.04194049 500.08150006 313.14789134 493.08088729 301.4375 482.1875 C300.674375 481.3625 299.91125 480.5375 299.125 479.6875 C297.7328125 478.2953125 297.7328125 478.2953125 296.3125 476.875 C293.19884319 473.18564102 291.0158556 469.0823967 288.8125 464.8125 C288.46276123 464.1527417 288.11302246 463.4929834 287.75268555 462.81323242 C285.04784196 457.37355807 284.84857264 454.19965379 284.125 447.6875 C254.095 447.6875 224.065 447.6875 193.125 447.6875 C193.125 457.5875 193.125 467.4875 193.125 477.6875 C188.38175676 485.98817568 188.38175676 485.98817568 183.7421875 487.9765625 C171.0313065 491.42936898 156.1750682 489.80479182 143.125 489.6875 C142.97804688 490.47511719 142.83109375 491.26273438 142.6796875 492.07421875 C140.91680934 500.63532246 137.98060184 507.87857369 134.125 515.6875 C132.82063744 518.4524561 131.53596122 521.22644829 130.25 524 C129.64891934 525.28798539 129.04740009 526.57576626 128.4453125 527.86328125 C128.00960937 528.79527344 127.57390625 529.72726562 127.125 530.6875 C128.115 531.0175 129.105 531.3475 130.125 531.6875 C131.73828125 533.359375 131.73828125 533.359375 133.4375 535.4375 C135.60828228 538.00960338 137.55979757 540.04243679 140.1875 542.1875 C143.24599682 544.79047602 145.34389827 547.45061759 147.671875 550.69140625 C149.0266723 552.55243157 150.44636074 554.30998288 151.9375 556.0625 C154.98061482 559.71423778 155.26637478 561.67841936 155.453125 566.421875 C154.98224636 569.67317991 153.80652881 571.86049967 152.125 574.6875 C150.09924639 576.13819763 148.06484591 577.57685721 146.02441406 579.00683594 C141.29538938 583.17002888 139.73537285 587.1391075 139.02526855 593.36535645 C138.52771393 601.30251875 138.58816747 609.23547922 138.70634365 617.18394566 C138.75354967 621.21584826 138.7322719 625.24740728 138.71856689 629.27947998 C138.70292048 636.89771335 138.74797628 644.51430281 138.81538892 652.13220477 C138.88920154 660.8119173 138.89451479 669.49126124 138.89435911 678.17123842 C138.89555904 696.01087379 138.9908909 713.84833452 139.125 731.6875 C154.965 731.6875 170.805 731.6875 187.125 731.6875 C187.455 729.3775 187.785 727.0675 188.125 724.6875 C192.46220335 708.89563139 203.21074291 696.10695493 217.125 687.6875 C227.47618145 682.52906593 236.88227578 679.29546207 248.4375 679.375 C249.27273193 679.37918945 250.10796387 679.38337891 250.96850586 679.38769531 C257.41075513 679.50522494 263.07142374 680.40758167 269.125 682.6875 C269.9603125 682.9659375 270.795625 683.244375 271.65625 683.53125 C287.68324998 689.26931172 300.48876362 701.8758017 307.875 717 C313.75630897 730.82010557 314.88634313 745.15172882 311.125 759.6875 C310.97675781 760.44933594 310.82851563 761.21117187 310.67578125 761.99609375 C307.34761962 776.3709195 295.64101988 789.52539053 283.6875 797.5 C268.62966058 806.5472693 251.27298645 808.92599477 233.96484375 806.1875 C231.56564861 805.51831086 229.39267046 804.71413626 227.125 803.6875 C226.31289063 803.33558594 225.50078125 802.98367188 224.6640625 802.62109375 C218.32941113 799.66817165 212.69355209 795.88965107 207.125 791.6875 C206.11373047 790.92759766 206.11373047 790.92759766 205.08203125 790.15234375 C201.58605145 787.35705073 199.22939829 784.7159695 197.15625 780.66796875 C195.91265989 778.27971047 194.48914999 776.03333932 193.0625 773.75 C189.27949257 767.4386028 186.93439134 762.18477407 187.125 754.6875 C186.33874741 754.70526489 185.55249481 754.72302979 184.74241638 754.74133301 C177.31308846 754.9019896 169.8846087 755.02360504 162.4539938 755.10199738 C158.63418097 755.14365692 154.81580944 755.20010451 150.99682617 755.29101562 C147.30733779 755.37828902 143.61923043 755.42584355 139.92878914 755.44651794 C138.52485478 755.46123939 137.1209916 755.48999042 135.71764946 755.53334045 C133.74408324 755.5918503 131.76911086 755.59477164 129.79467773 755.59570312 C128.67326889 755.61346802 127.55186005 755.63123291 126.39646912 755.64953613 C122.18657436 754.41153855 120.21196729 752.66236317 117.50231838 749.25362396 C114.80332788 744.22505229 115.21645194 738.96821015 115.33032227 733.38671875 C115.32930008 732.06881851 115.32827789 730.75091827 115.32722473 729.39308167 C115.32522601 725.8000158 115.36621638 722.20860422 115.41524243 718.61592102 C115.45916775 714.85373449 115.46312651 711.09150496 115.47142029 707.32910156 C115.49312888 700.21393656 115.55050525 693.09952944 115.62086672 685.98469734 C115.69926032 677.8807831 115.73763417 669.77683159 115.77273476 661.67263222 C115.84579329 645.01047867 115.968822 628.34908623 116.125 611.6875 C114.86285262 612.77979117 113.60245496 613.87410429 112.34277344 614.96923828 C111.64069763 615.57841095 110.93862183 616.18758362 110.215271 616.81521606 C106.52043044 620.12473461 103.11973775 623.7237834 99.70703125 627.3203125 C95.61478246 631.5205103 93.46011993 632.51452815 87.75 632.9375 C80.17910406 632.41536925 76.45245114 628.23501223 71.41796875 623.0234375 C67.46794912 618.99939706 63.15761188 615.39935666 58.84765625 611.76953125 C58.11417969 611.14433594 57.38070312 610.51914062 56.625 609.875 C55.9546875 609.31167969 55.284375 608.74835937 54.59375 608.16796875 C53.125 606.6875 53.125 606.6875 53.125 604.6875 C52.62798584 604.92871582 52.13097168 605.16993164 51.61889648 605.41845703 C39.02788676 611.50905932 26.44814791 617.35394962 13.125 621.6875 C12.5079781 628.17279399 12.1067572 634.61634101 11.9765625 641.12890625 C11.94876709 642.27697754 11.92097168 643.42504883 11.89233398 644.60791016 C11.83965023 646.92889538 11.80237735 649.2502882 11.78149414 651.57177734 C11.51729929 662.16622618 11.51729929 662.16622618 7.125 666.6875 C0.125 670.6875 0.125 670.6875 -29.875 670.6875 C-29.875 700.7175 -29.875 730.7475 -29.875 761.6875 C-26.905 762.0175 -23.935 762.3475 -20.875 762.6875 C-18.06601606 763.780034 -15.57604879 764.85663117 -12.9375 766.25 C-12.2465625 766.60787598 -11.555625 766.96575195 -10.84375 767.33447266 C5.07577908 775.82612801 15.84770387 789.17124422 21.296875 806.390625 C25.29618742 823.83265245 22.51129529 842.7740172 13.11328125 857.8671875 C2.1891842 873.36266504 -11.37451703 882.68117864 -29.875 887 C-48.19001579 890.1174495 -64.5600036 885.31596519 -79.8125 875.25 C-83.64672893 872.04176763 -86.77301025 868.59780333 -89.875 864.6875 C-90.75865234 863.59308594 -90.75865234 863.59308594 -91.66015625 862.4765625 C-101.94268983 848.87197961 -106.17278005 832.57527888 -104.875 815.6875 C-102.34705456 800.08783669 -95.02960273 787.71907402 -83.875 776.6875 C-83.359375 776.13835938 -82.84375 775.58921875 -82.3125 775.0234375 C-78.43347104 771.24542492 -73.76705451 768.84940936 -69 766.375 C-68.33991943 766.0248584 -67.67983887 765.6747168 -66.99975586 765.31396484 C-61.55962183 762.61090033 -58.38724674 762.41108297 -51.875 761.6875 C-51.875 731.6575 -51.875 701.6275 -51.875 670.6875 C-62.105 670.6875 -72.335 670.6875 -82.875 670.6875 C-90.99899652 665.27150232 -90.99899652 665.27150232 -92.875 659.6875 C-93.47577022 655.66600274 -93.57185734 651.68661774 -93.625 647.625 C-93.66838501 645.96513062 -93.66838501 645.96513062 -93.71264648 644.27172852 C-93.78961144 641.07686401 -93.83915897 637.88306507 -93.875 634.6875 C-93.88974365 633.43646484 -93.88974365 633.43646484 -93.90478516 632.16015625 C-93.9409189 628.33502081 -93.93658004 624.51230458 -93.875 620.6875 C-95.37353516 620.52121094 -95.37353516 620.52121094 -96.90234375 620.3515625 C-100.93704338 619.77011194 -104.64454694 618.52462223 -108.4375 617.0625 C-109.12424805 616.80251221 -109.81099609 616.54252441 -110.51855469 616.2746582 C-116.54804065 613.93362788 -122.26558135 611.11781005 -127.984375 608.10546875 C-131.3060022 606.45230208 -131.3060022 606.45230208 -134.875 605.6875 C-136.73850546 607.28479039 -138.24480386 608.86697639 -139.875 610.6875 C-145.32782919 616.28657365 -150.90908143 621.63844891 -156.875 626.6875 C-157.45636719 627.18507813 -158.03773438 627.68265625 -158.63671875 628.1953125 C-163.24314031 632.09905958 -166.06176993 633.35528202 -172.09765625 633.27734375 C-177.67457646 632.09293453 -181.07256909 627.68434091 -184.875 623.6875 C-186.3746403 622.17497022 -187.88307893 620.67162876 -189.39282227 619.16918945 C-190.81415515 617.74832481 -192.21995731 616.31197548 -193.625 614.875 C-195.67440827 612.6616142 -195.67440827 612.6616142 -197.875 611.6875 C-197.87131283 612.38379863 -197.86762566 613.08009726 -197.86382675 613.79749584 C-197.77548939 630.73997381 -197.70929713 647.68237884 -197.66775131 664.62503338 C-197.64712603 672.81838438 -197.6190062 681.01158165 -197.57324219 689.20483398 C-197.53337324 696.34608224 -197.50756694 703.48721917 -197.49864602 710.62857562 C-197.49343131 714.40992534 -197.48117599 718.19095657 -197.45207977 721.97220421 C-197.42490946 725.53204308 -197.41655808 729.09143256 -197.42256927 732.65136528 C-197.42094586 734.57918913 -197.39943139 736.50696415 -197.37731934 738.43466187 C-197.38281799 739.58586014 -197.38831665 740.73705841 -197.39398193 741.92314148 C-197.39029476 742.92144328 -197.38660759 743.91974508 -197.38280869 744.94829845 C-198.01612884 748.47292699 -199.427358 750.11813459 -201.875 752.6875 C-205.42087941 755.0514196 -206.89003682 754.93105585 -211.09057617 754.91455078 C-212.3716777 754.91439972 -213.65277924 754.91424866 -214.97270203 754.91409302 C-216.37112584 754.90387973 -217.76954808 754.89344774 -219.16796875 754.8828125 C-220.59857485 754.87908178 -222.02918352 754.87623509 -223.45979309 754.87423706 C-227.22292144 754.86660522 -230.98589511 754.84696069 -234.7489624 754.8248291 C-238.58978178 754.80436094 -242.43062617 754.79523327 -246.27148438 754.78515625 C-253.80606006 754.76371429 -261.34050834 754.72958387 -268.875 754.6875 C-268.92810837 755.28914978 -268.98121674 755.89079956 -269.03593445 756.51068115 C-269.11390762 757.30863098 -269.1918808 758.10658081 -269.2722168 758.92871094 C-269.34595016 759.71598572 -269.41968353 760.5032605 -269.49565125 761.31439209 C-270.12323753 765.24040993 -271.79255253 768.47788711 -273.6875 771.9375 C-274.08493408 772.66767334 -274.48236816 773.39784668 -274.8918457 774.15014648 C-284.17627222 790.47227877 -297.78167848 800.48015381 -315.875 805.6875 C-328.21621376 808.95494121 -343.294974 807.6703262 -354.875 802.6875 C-355.89851562 802.26339844 -356.92203125 801.83929687 -357.9765625 801.40234375 C-374.0266777 794.1086838 -385.82664641 779.71601502 -392.1328125 763.44140625 C-396.93023413 748.66333473 -396.39930198 731.91261744 -389.875 717.6875 C-389.49859375 716.85734375 -389.1221875 716.0271875 -388.734375 715.171875 C-384.78020665 707.21808809 -379.33172547 700.73276747 -372.875 694.6875 C-372.215 694.6875 -371.555 694.6875 -370.875 694.6875 C-370.875 694.0275 -370.875 693.3675 -370.875 692.6875 C-368.6902247 691.41178516 -366.50238381 690.14189327 -364.3125 688.875 C-363.70341797 688.51857422 -363.09433594 688.16214844 -362.46679688 687.79492188 C-352.47360577 682.03165293 -343.23102354 679.29146285 -331.75 679.3125 C-330.83001221 679.31411133 -329.91002441 679.31572266 -328.9621582 679.31738281 C-313.59703543 679.59125656 -301.56713813 685.04254129 -289.875 694.6875 C-289.24335938 695.18378906 -288.61171875 695.68007813 -287.9609375 696.19140625 C-276.55435464 705.41214614 -271.65835154 717.81521101 -267.875 731.6875 C-252.035 732.0175 -236.195 732.3475 -219.875 732.6875 C-219.68908675 714.02306288 -219.56201794 695.36119931 -219.54078102 676.69591331 C-219.52905837 668.02801281 -219.49146882 659.36170614 -219.39160156 650.69433594 C-219.30455715 643.13401991 -219.26745445 635.57533221 -219.28872812 628.01451743 C-219.29827818 624.01535082 -219.28390961 620.01968979 -219.20958328 616.02112961 C-218.11171791 597.02973335 -218.11171791 597.02973335 -225.89664268 580.63765907 C-228.73238765 578.06980346 -231.76422581 575.91216679 -234.875 573.6875 C-237.2178896 570.04992115 -237.59121763 566.68983257 -237.515625 562.40625 C-236.2248392 556.928281 -231.78356998 553.49585024 -227.875 549.6875 C-226.67296235 548.32519066 -225.4841049 546.95106877 -224.3125 545.5625 C-221.23218477 542.01437989 -217.94839343 538.717329 -214.57421875 535.44921875 C-212.68410864 533.59440694 -212.68410864 533.59440694 -210.875 530.6875 C-211.18269871 525.85321133 -212.9174345 522.16986624 -215.0625 517.875 C-217.83184882 512.17301698 -220.20574412 506.41637437 -222.3125 500.4375 C-222.57119873 499.71071045 -222.82989746 498.9839209 -223.09643555 498.23510742 C-224.122275 495.26309191 -224.875 492.85409369 -224.875 489.6875 C-226.44121094 489.70490234 -226.44121094 489.70490234 -228.0390625 489.72265625 C-236.90247729 489.79206116 -245.76535119 489.70446441 -254.625 489.4375 C-256.0164624 489.41635132 -256.0164624 489.41635132 -257.43603516 489.39477539 C-263.0102058 489.19064366 -266.60036631 488.60378117 -270.875 484.6875 C-274.875 477.6875 -274.875 477.6875 -274.875 447.6875 C-304.905 447.6875 -334.935 447.6875 -365.875 447.6875 C-366.205 450.6575 -366.535 453.6275 -366.875 456.6875 C-371.98612387 472.96412622 -384.48669935 485.61674802 -398.95703125 493.86328125 C-408.54855698 498.58019195 -417.35127928 500.31941127 -428 500.125 C-429.65322266 500.13563477 -429.65322266 500.13563477 -431.33984375 500.14648438 C-447.51140343 500.02179263 -461.83750218 493.33756787 -473.48632812 482.13525391 C-485.010766 470.12050064 -491.84116241 453.22755806 -492.1875 436.625 C-491.67566127 421.00368207 -487.22602968 407.57464139 -476.875 395.6875 C-475.95074219 394.46546875 -475.95074219 394.46546875 -475.0078125 393.21875 C-466.83787105 383.52255575 -453.41900436 375.73444621 -440.875 373.6875 C-421.75006193 372.24394496 -403.77055787 373.56220274 -388.52734375 386.4140625 C-376.13725769 397.38475922 -367.72063184 409.07681348 -365.875 425.6875 C-335.845 425.6875 -305.815 425.6875 -274.875 425.6875 C-274.875 415.4575 -274.875 405.2275 -274.875 394.6875 C-269.84067506 387.13601259 -269.84067506 387.13601259 -264.875 384.6875 C-261.45829866 384.08002058 -258.08989154 383.9901625 -254.625 383.9375 C-253.18519775 383.89411499 -253.18519775 383.89411499 -251.71630859 383.84985352 C-242.7715616 383.60700637 -233.82201249 383.58808875 -224.875 383.6875 C-224.76542969 383.0584375 -224.65585937 382.429375 -224.54296875 381.78125 C-224.30513672 380.49734375 -224.30513672 380.49734375 -224.0625 379.1875 C-223.83626953 377.93453125 -223.83626953 377.93453125 -223.60546875 376.65625 C-221.95928499 369.96587748 -219.07560303 363.66774433 -216.3125 357.375 C-216.00892578 356.67310547 -215.70535156 355.97121094 -215.39257812 355.24804688 C-214.06117994 352.2052654 -212.72219614 349.45829421 -210.875 346.6875 C-210.80065225 343.41619887 -211.26433491 341.42605306 -213.3671875 338.8828125 C-215.15694405 337.09305595 -216.99196213 335.37847636 -218.875 333.6875 C-222.78820211 329.89658546 -226.31177375 325.80364067 -229.875 321.6875 C-230.4525 321.0378125 -231.03 320.388125 -231.625 319.71875 C-232.16125 319.1103125 -232.6975 318.501875 -233.25 317.875 C-233.73210937 317.33230469 -234.21421875 316.78960937 -234.7109375 316.23046875 C-237.22108155 312.90326439 -237.39832824 309.10446444 -237.33984375 305.08203125 C-236.30255267 299.73867466 -231.65854164 296.09770018 -227.54866886 292.84813023 C-223.84762302 289.73066063 -221.27798087 287.24594973 -220.0447216 282.47656059 C-219.72958168 278.6011817 -219.69401629 274.77856636 -219.76147461 270.89624023 C-219.75413928 269.41707494 -219.74285087 267.93792481 -219.72793579 266.45881653 C-219.69877144 262.46701094 -219.72451419 258.47726883 -219.76052547 254.4855907 C-219.78876491 250.30549712 -219.76594806 246.1256805 -219.74867249 241.9455719 C-219.72369659 234.04073314 -219.74427701 226.13670361 -219.78144604 218.23193938 C-219.82154802 209.22819567 -219.81052832 200.22473799 -219.79532993 191.22094429 C-219.76522181 172.70941587 -219.80568366 154.19894154 -219.875 135.6875 C-236.045 135.6875 -252.215 135.6875 -268.875 135.6875 C-269.205 138.3275 -269.535 140.9675 -269.875 143.6875 C-272.87785589 152.9766113 -277.30555045 160.51333124 -283.875 167.6875 C-284.679375 168.574375 -285.48375 169.46125 -286.3125 170.375 C-287.158125 171.138125 -288.00375 171.90125 -288.875 172.6875 C-289.46152344 173.21730469 -290.04804688 173.74710938 -290.65234375 174.29296875 C-303.89589486 185.46490293 -319.65413419 189.83103039 -336.76953125 188.87402344 C-352.80171092 187.45373294 -368.25278349 179.91182768 -378.875 167.6875 C-380.140625 164.91796875 -380.140625 164.91796875 -380.875 162.6875 C-381.535 162.6875 -382.195 162.6875 -382.875 162.6875 C-390.3586846 149.42190018 -394.04612604 138.75876635 -394.125 123.4375 C-394.145625 122.45136719 -394.16625 121.46523437 -394.1875 120.44921875 C-394.26830541 105.11639193 -387.82899722 93.01831178 -377.875 81.6875 C-377.25753906 80.97464844 -376.64007813 80.26179688 -376.00390625 79.52734375 C-367.03822166 69.85335143 -353.06081536 62.32985625 -339.70678711 61.56298828 C-320.71657195 60.96390439 -303.5487346 63.60198925 -288.58984375 76.3359375 C-279.54939929 85.01575901 -272.49975058 95.61056603 -268.875 107.6875 C-268.84164825 109.6872219 -268.83747958 111.68785198 -268.875 113.6875 C-268.08208557 113.68305878 -267.28917114 113.67861755 -266.472229 113.67404175 C-258.99768086 113.63395818 -251.52318488 113.60351214 -244.04855728 113.58387566 C-240.20582746 113.57344096 -236.3631865 113.55928755 -232.52050781 113.53662109 C-228.81171547 113.51488143 -225.10300856 113.50292901 -221.39415741 113.49774551 C-219.97957769 113.49405177 -218.56500261 113.4868388 -217.15045929 113.47603989 C-215.16838648 113.4615109 -213.1862276 113.46068296 -211.20410156 113.46044922 C-210.07603088 113.456008 -208.94796021 113.45156677 -207.78570557 113.44699097 C-204.78678452 113.69478917 -203.26199931 113.87479033 -200.875 115.6875 C-198.42799542 119.85619812 -197.501268 122.90835226 -197.51423645 127.72396851 C-197.50805046 129.50331284 -197.50805046 129.50331284 -197.5017395 131.31860352 C-197.51252533 132.60613525 -197.52331116 133.89366699 -197.53442383 135.22021484 C-197.53527076 136.60039247 -197.53479367 137.98057145 -197.53309631 139.36074829 C-197.53223749 143.09593034 -197.54984472 146.83082188 -197.57081819 150.56593657 C-197.58960394 154.47368099 -197.59133692 158.38143247 -197.59489441 162.28921509 C-197.60420931 169.68393329 -197.62881553 177.07851804 -197.65894288 184.47317755 C-197.6925042 192.89393569 -197.70897724 201.31470028 -197.72402918 209.73550868 C-197.75536562 227.05291624 -197.80811527 244.370194 -197.875 261.6875 C-196.58261594 260.56871749 -195.29192266 259.44798163 -194.00195312 258.32641602 C-193.2830188 257.7025148 -192.56408447 257.07861359 -191.82336426 256.43580627 C-189.80680841 254.62631032 -188.06466158 252.74157075 -186.375 250.625 C-182.41329016 246.03728634 -178.52405193 241.54883921 -172.42578125 240.109375 C-166.53516611 239.71245759 -163.11509018 241.24135418 -158.6875 245.03515625 C-158.089375 245.58042969 -157.49125 246.12570312 -156.875 246.6875 C-155.79421113 247.56564095 -154.71108449 248.44091719 -153.625 249.3125 C-151.25606531 251.35839814 -149.05098224 253.44132478 -146.875 255.6875 C-146.111875 256.450625 -145.34875 257.21375 -144.5625 258 C-143.05895934 259.50354066 -141.56998605 261.02342753 -140.140625 262.59765625 C-139.53734375 263.24605469 -138.9340625 263.89445312 -138.3125 264.5625 C-137.75433594 265.17867188 -137.19617188 265.79484375 -136.62109375 266.4296875 C-134.99436248 267.87471513 -134.99436248 267.87471513 -133.109375 267.61328125 C-129.86657464 266.26967341 -126.78949609 264.63469313 -123.6875 263 C-117.7979764 259.97439085 -111.86956151 257.39150276 -105.625 255.1875 C-104.55342651 254.80525269 -104.55342651 254.80525269 -103.46020508 254.4152832 C-100.04734991 253.24905063 -97.52469274 252.6875 -93.875 252.6875 C-93.88285522 251.7759314 -93.88285522 251.7759314 -93.89086914 250.84594727 C-93.96722603 240.58416147 -94.04087959 230.3159613 -93.5625 220.0625 C-93.50449219 218.75023437 -93.44648438 217.43796875 -93.38671875 216.0859375 C-92.82850634 212.37872532 -92.21870133 210.59658907 -89.875 207.6875 C-82.875 202.6875 -82.875 202.6875 -51.875 202.6875 C-51.875 172.6575 -51.875 142.6275 -51.875 111.6875 C-54.845 111.3575 -57.815 111.0275 -60.875 110.6875 C-63.68818904 109.61788787 -66.17199571 108.56566802 -68.8125 107.1875 C-69.5027124 106.83365234 -70.1929248 106.47980469 -70.90405273 106.11523438 C-77.07511386 102.81938412 -82.04415615 98.75180471 -86.875 93.6875 C-87.50664062 93.06359375 -88.13828125 92.4396875 -88.7890625 91.796875 C-101.31622324 78.66267123 -104.41893326 63.1796707 -104.36523438 45.6953125 C-104.02291978 32.30329748 -99.90716642 21.46659779 -91.875 10.6875 C-91.34132813 9.97078125 -90.80765625 9.2540625 -90.2578125 8.515625 C-80.35872096 -3.70430618 -65.39089328 -11.81041191 -49.93359375 -13.99609375 C-30.87756568 -15.967407 -15.34145618 -11.0533061 0 0 Z " fill="#040404" transform="translate(530.875,53.3125)"/>
<path d="M0 0 C19.8 0 39.6 0 60 0 C60.25 16.5 60.25 16.5 60.29785156 21.65820312 C60.45344295 30.63678736 60.69315703 37.57536304 67.28515625 44.34765625 C70.53518315 46.32573018 73.80312144 47.42424474 77.4375 48.4375 C78.87682455 48.86804892 80.31561917 49.30037292 81.75390625 49.734375 C82.47078613 49.94771484 83.18766602 50.16105469 83.92626953 50.38085938 C93.99969094 53.38841726 102.62542495 57.11736946 111.52099609 62.69799805 C116.77187301 65.84221791 120.89930601 66.77994992 127 66 C133.14810642 64.35318578 136.39446784 60.89379395 140.734375 56.33984375 C143.39853014 53.58841456 146.23661555 51.12321423 149.1484375 48.640625 C150.97071477 47.02594894 152.63761698 45.32814023 154.3125 43.5625 C157 41 157 41 160 41 C161.359375 42.3203125 161.359375 42.3203125 162.75 44.125 C164.86023744 46.72745164 166.97323601 48.93580605 169.5625 51.0625 C172.80742666 53.73938698 175.3047579 56.76570948 178 60 C179.14846224 61.02085532 180.31621922 62.02031935 181.5 63 C184.76428178 65.70147457 187.28518379 68.74222055 190 72 C191.77217346 73.58314163 193.59159916 75.09720235 195.41796875 76.6171875 C197.27365519 78.23919491 198.71983951 79.89150036 200 82 C200 84 200 84 198.0625 86.0625 C197.04369916 87.04378126 196.02250076 88.02257468 195 89 C189.88977905 94.00515098 184.96348244 99.04428725 180.41015625 104.56640625 C179.94480469 105.03949219 179.47945312 105.51257813 179 106 C178.34 106 177.68 106 177 106 C174.28672187 112.07455412 173.64003943 118.24918646 175.94238281 124.59912109 C177.24066608 127.19619358 178.64704214 129.68849838 180.125 132.1875 C186.80589296 144.18043427 191.32308173 156.13415965 195.140625 169.328125 C195.42421875 170.20984375 195.7078125 171.0915625 196 172 C196.22171875 172.69609375 196.4434375 173.3921875 196.671875 174.109375 C199.09037498 177.55218085 202.92853797 179.60071297 207.01797485 180.38897705 C209.20516381 180.55387486 211.36530381 180.60603865 213.55859375 180.609375 C214.60956238 180.63281982 214.60956238 180.63281982 215.6817627 180.65673828 C218.26667062 180.7088257 220.8521651 180.72751583 223.4375 180.75 C229.233125 180.8325 235.02875 180.915 241 181 C241 200.8 241 220.6 241 241 C222.875 241.8125 222.875 241.8125 217.18701172 242.04614258 C215.68451774 242.11953709 214.18207224 242.19393376 212.6796875 242.26953125 C211.91148682 242.29736694 211.14328613 242.32520264 210.35180664 242.35388184 C205.57524225 242.61001645 202.15905105 243.41686876 198 246 C195.11692628 249.70959824 193.9667373 253.91770831 192.6875 258.375 C188.47297533 272.37082792 183.14855211 286.77717183 175 299 C174.64529339 301.30813148 174.64529339 301.30813148 174.6875 303.8125 C174.67074219 304.64394531 174.65398437 305.47539063 174.63671875 306.33203125 C175.47114588 312.46013589 178.8176316 316.13283203 183.1875 320.25 C187.66702335 324.55007436 191.59363153 329.03817735 195.34375 334.00390625 C197.02403408 336.22266594 197.02403408 336.22266594 200 338 C198.43068387 341.85195777 195.94959682 344.11743947 193 347 C192.01162523 348.15887608 191.03280675 349.32595431 190.0625 350.5 C187.33155599 353.7421207 184.26369722 356.29182571 181 359 C179.79640728 360.45698066 178.59342129 361.91475443 177.41796875 363.39453125 C175.13608804 365.97814825 172.47333318 368.10694145 169.8515625 370.3359375 C167.60864524 372.3517239 165.85712731 374.63056171 164 377 C161.4375 379.375 161.4375 379.375 159 381 C155.93298524 379.97766175 154.726635 378.86454382 152.5390625 376.58691406 C149.2972137 373.24427174 145.87844872 370.07839956 142.5 366.875 C141.75363281 366.15957031 141.00726562 365.44414063 140.23828125 364.70703125 C134.13981075 358.93237334 129.85764762 355.20256495 121.1796875 355.3671875 C116.52519936 356.29351069 112.90037073 358.5027202 108.94750977 361.06567383 C105.27932982 363.43020228 102.35173994 364.58523507 98 365 C98 365.66 98 366.32 98 367 C94.87636366 368.10804975 91.7508441 369.21069538 88.625 370.3125 C87.75488281 370.62123047 86.88476562 370.92996094 85.98828125 371.24804688 C80.73567717 373.09618535 75.47969865 374.77531662 70.10693359 376.24145508 C66.05307901 377.70093668 63.81254561 380.4068547 61.90087891 384.1550293 C60.74039442 387.81983301 60.64518676 391.33640087 60.5859375 395.14453125 C60.55947144 396.16903381 60.55947144 396.16903381 60.5324707 397.2142334 C60.46977265 399.7467568 60.4233318 402.2796617 60.375 404.8125 C60.189375 413.3203125 60.189375 413.3203125 60 422 C40.2 422 20.4 422 0 422 C-0.8125 406.0625 -0.8125 406.0625 -1.04614258 401.09008789 C-1.34877637 390.1337573 -1.34877637 390.1337573 -5 380 C-9.01575431 376.43493466 -13.47123681 374.99142023 -18.5625 373.5625 C-19.99565012 373.13306288 -21.42793607 372.70073199 -22.859375 372.265625 C-23.56384766 372.05228516 -24.26832031 371.83894531 -24.99414062 371.61914062 C-32.82648403 369.20156238 -39.97586214 366.06651353 -47.11962891 362.07958984 C-56.87072392 356.52223791 -56.87072392 356.52223791 -67.87109375 355.35546875 C-70.38296144 356.11594245 -71.95248628 357.38720257 -74 359 C-74.66 359 -75.32 359 -76 359 C-76.26047119 359.58950439 -76.52094238 360.17900879 -76.78930664 360.78637695 C-78.07756814 363.14182503 -79.41477613 364.59114235 -81.37109375 366.41796875 C-82.02787109 367.03220703 -82.68464844 367.64644531 -83.36132812 368.27929688 C-84.04646484 368.90900391 -84.73160156 369.53871094 -85.4375 370.1875 C-86.11876953 370.82880859 -86.80003906 371.47011719 -87.50195312 372.13085938 C-92.6122124 376.87073747 -92.6122124 376.87073747 -96 378 C-96.33 378.99 -96.66 379.98 -97 381 C-97.99 381 -98.98 381 -100 381 C-101.20735743 379.59141633 -102.40645732 378.17424452 -103.546875 376.7109375 C-105.07125001 374.91610886 -106.68221981 373.49374111 -108.5 372 C-111.79871412 369.26535172 -114.30750298 366.33019369 -117 363 C-119.69805919 360.15993769 -122.49509382 357.56658849 -125.5 355.0625 C-128.7421207 352.33155599 -131.29182571 349.26369722 -134 346 C-135.94060916 344.23959026 -137.94276005 342.62665485 -140 341 C-139.48751744 336.86217786 -137.32569018 335.04914415 -134.375 332.25 C-130.58148858 328.57537355 -127.02589772 324.83310277 -123.6015625 320.81640625 C-122.01480522 319.01679129 -120.35138601 317.35252157 -118.625 315.6875 C-114.7402562 311.7102623 -114.30287155 307.87028838 -114.32421875 302.4765625 C-115.38586435 297.01491751 -118.20072622 292.71884973 -121.00976562 287.97290039 C-126.11800772 279.29735453 -129.51722076 270.2898427 -132.26171875 260.62109375 C-132.47078857 259.90002441 -132.6798584 259.17895508 -132.89526367 258.43603516 C-133.28490281 257.06781504 -133.65515377 255.69384985 -134.0012207 254.31396484 C-135.48727517 249.02002413 -137.60544085 247.01854001 -142 244 C-146.24413472 241.86122715 -150.25792515 241.66077606 -154.92578125 241.5859375 C-155.92079651 241.55947144 -155.92079651 241.55947144 -156.93591309 241.5324707 C-159.3945368 241.46979301 -161.85355257 241.42333818 -164.3125 241.375 C-169.819375 241.25125 -175.32625 241.1275 -181 241 C-181 221.2 -181 201.4 -181 181 C-165.0625 180.75 -165.0625 180.75 -160.09008789 180.70214844 C-151.16593493 180.49477498 -143.68786008 179.94767165 -136.625 174 C-134.550319 170.1698197 -133.73060334 166.37347622 -132.75390625 162.14453125 C-129.63442502 149.13322353 -123.34347103 135.51874872 -116.23828125 124.19140625 C-113.83055463 119.93041372 -113.91855921 115.69256764 -115 111 C-117.52229931 107.16146634 -120.70145471 104.17341079 -124 101 C-125.55486245 99.28268924 -127.0968863 97.55365536 -128.625 95.8125 C-131.86741133 92.1762042 -135.23365509 88.7977895 -138.8828125 85.5703125 C-140 84 -140 84 -139.6796875 81.8046875 C-139.34324219 80.91136719 -139.34324219 80.91136719 -139 80 C-138.34 80 -137.68 80 -137 80 C-136.34 78.68 -135.68 77.36 -135 76 C-134.34 76 -133.68 76 -133 76 C-132.79375 75.443125 -132.5875 74.88625 -132.375 74.3125 C-130.84206928 71.73438925 -128.97969507 70.26273407 -126.64453125 68.421875 C-124.29233001 66.38814281 -122.42220537 64.02371435 -120.4453125 61.6328125 C-118.52143354 59.45934924 -116.27968881 57.78678312 -114 56 C-113.443125 55.2575 -112.88625 54.515 -112.3125 53.75 C-111.879375 53.1725 -111.44625 52.595 -111 52 C-110.34 52 -109.68 52 -109 52 C-108.67 51.01 -108.34 50.02 -108 49 C-105.21537003 45.98958922 -102.35324899 43.35969373 -99 41 C-94.90097722 42.61033038 -92.23819377 45.57829791 -89.25 48.6875 C-85.18823478 52.83284063 -81.10902195 56.87008696 -76.65234375 60.59765625 C-75 62 -75 62 -72.625 64.4375 C-68.32587534 66.99650278 -64.86165255 67.03426239 -60 66 C-55.12124479 64.07324994 -50.54736467 61.48285736 -45.93359375 59.00439453 C-41.43725002 56.66879376 -36.70332216 54.86918255 -32 53 C-31.17371094 52.65324219 -30.34742188 52.30648437 -29.49609375 51.94921875 C-23.76080484 49.56488516 -17.97323338 47.76005393 -11.98046875 46.125 C-8.13930142 44.67512295 -5.25056629 42.82132618 -2.8996582 39.39746094 C-1.56703024 35.84619726 -1.52594961 32.26613725 -1.3671875 28.515625 C-1.32988525 27.7922998 -1.29258301 27.06897461 -1.25415039 26.32373047 C-1.11800534 23.63296314 -0.99742078 20.94142666 -0.875 18.25 C-0.58625 12.2275 -0.2975 6.205 0 0 Z " fill="#FCFCFC" transform="translate(460,279)"/>
<path d="M0 0 C1.49660156 0.00628418 1.49660156 0.00628418 3.0234375 0.01269531 C11.88938368 0.14625284 20.26075344 1.27217126 28.875 3.3125 C29.88046875 3.54525635 29.88046875 3.54525635 30.90625 3.78271484 C38.54726796 5.58459913 45.88097596 7.69533747 52.875 11.3125 C53.72191406 11.74304688 54.56882812 12.17359375 55.44140625 12.6171875 C78.51589675 24.76165618 95.71302196 40.93048549 108.875 63.3125 C109.23070068 63.90699951 109.58640137 64.50149902 109.95288086 65.11401367 C124.7007152 90.18009613 127.26372612 121.40570182 120.875 149.3125 C120.61976563 150.53839844 120.36453125 151.76429688 120.1015625 153.02734375 C114.50410635 177.08613465 99.90202769 199.67678118 80.875 215.3125 C80.19824219 215.87710938 79.52148438 216.44171875 78.82421875 217.0234375 C54.11816831 236.98701025 21.60461663 247.35055683 -10.125 244.3125 C-35.31904952 240.90451159 -56.22970964 232.08641128 -76.125 216.3125 C-76.95902344 215.66796875 -77.79304688 215.0234375 -78.65234375 214.359375 C-89.46149261 205.41151717 -97.28088329 194.16806545 -104.12402344 182.07641602 C-104.79481427 180.89435168 -105.47529569 179.7177374 -106.16503906 178.54663086 C-120.6699495 153.80235354 -124.03950513 121.94400275 -117.125 94.3125 C-111.90092118 74.54321852 -103.57399515 57.82522027 -90.125 42.3125 C-89.09632813 41.06533203 -89.09632813 41.06533203 -88.046875 39.79296875 C-66.8337494 14.84790438 -32.63700363 -0.19053196 0 0 Z " fill="#FBFBFB" transform="translate(488.125,367.6875)"/>
<path d="M0 0 C1.49660156 0.00628418 1.49660156 0.00628418 3.0234375 0.01269531 C11.88938368 0.14625284 20.26075344 1.27217126 28.875 3.3125 C29.88046875 3.54525635 29.88046875 3.54525635 30.90625 3.78271484 C38.54726796 5.58459913 45.88097596 7.69533747 52.875 11.3125 C53.72191406 11.74304688 54.56882812 12.17359375 55.44140625 12.6171875 C78.51589675 24.76165618 95.71302196 40.93048549 108.875 63.3125 C109.23070068 63.90699951 109.58640137 64.50149902 109.95288086 65.11401367 C124.7007152 90.18009613 127.26372612 121.40570182 120.875 149.3125 C120.61976563 150.53839844 120.36453125 151.76429688 120.1015625 153.02734375 C114.50410635 177.08613465 99.90202769 199.67678118 80.875 215.3125 C80.19824219 215.87710938 79.52148438 216.44171875 78.82421875 217.0234375 C54.11816831 236.98701025 21.60461663 247.35055683 -10.125 244.3125 C-35.31904952 240.90451159 -56.22970964 232.08641128 -76.125 216.3125 C-76.95902344 215.66796875 -77.79304688 215.0234375 -78.65234375 214.359375 C-89.46149261 205.41151717 -97.28088329 194.16806545 -104.12402344 182.07641602 C-104.79481427 180.89435168 -105.47529569 179.7177374 -106.16503906 178.54663086 C-120.6699495 153.80235354 -124.03950513 121.94400275 -117.125 94.3125 C-111.90092118 74.54321852 -103.57399515 57.82522027 -90.125 42.3125 C-89.09632813 41.06533203 -89.09632813 41.06533203 -88.046875 39.79296875 C-66.8337494 14.84790438 -32.63700363 -0.19053196 0 0 Z M-72.51171875 55.4453125 C-75.72646521 59.16601179 -78.44391682 63.19778206 -81.125 67.3125 C-81.640625 68.09496094 -82.15625 68.87742187 -82.6875 69.68359375 C-93.33657239 86.57235699 -97.30134487 103.63484303 -97.3125 123.3125 C-97.32474609 124.44945312 -97.33699219 125.58640625 -97.34960938 126.7578125 C-97.3604929 133.01220992 -96.96048047 138.33444208 -95.125 144.3125 C-94.78082031 145.56289063 -94.43664062 146.81328125 -94.08203125 148.1015625 C-89.87917821 162.45945727 -83.74296593 174.70620458 -74.125 186.3125 C-73.70734375 186.82055176 -73.2896875 187.32860352 -72.859375 187.85205078 C-57.94275779 205.77333298 -35.35582045 218.15014246 -12.15234375 220.99609375 C17.0280173 223.59764486 43.07216875 217.03745267 65.875 198.3125 C66.51953125 197.81492187 67.1640625 197.31734375 67.828125 196.8046875 C81.84390938 185.46671559 91.00702712 169.06312458 96.875 152.3125 C97.29265625 151.14589844 97.7103125 149.97929688 98.140625 148.77734375 C105.17644832 125.61362964 102.1761798 99.0638284 90.95458984 77.76586914 C89.94822955 75.93571833 88.91828088 74.12181193 87.875 72.3125 C87.3078125 71.30703125 86.740625 70.3015625 86.15625 69.265625 C79.66476764 58.42607427 71.03446653 49.73319468 60.875 42.3125 C60.0190625 41.65636719 59.163125 41.00023437 58.28125 40.32421875 C17.27687438 10.66515492 -38.44124687 20.15513399 -72.51171875 55.4453125 Z " fill="#050505" transform="translate(488.125,367.6875)"/>
<path d="M0 0 C3.76444323 2.44046582 4.78506017 5.09464293 6.1640625 9.1796875 C6.63588231 10.47686704 7.10853579 11.77374366 7.58203125 13.0703125 C7.92210205 14.03094604 7.92210205 14.03094604 8.26904297 15.01098633 C8.97283232 16.91957175 9.74715687 18.77942634 10.55859375 20.64453125 C11.6481981 23.16893142 12.62547904 25.63321141 13.4765625 28.2421875 C13.72664063 29.0053125 13.97671875 29.7684375 14.234375 30.5546875 C14.97993521 32.94048019 15.66591738 35.33857764 16.3515625 37.7421875 C17.42927067 41.38084136 18.72659594 44.81947107 20.2265625 48.3046875 C22.89204279 54.53214595 25.10429339 60.88021568 27.31054688 67.28027344 C29.19696313 72.740195 31.16586947 78.15828419 33.2265625 83.5546875 C35.15827964 88.61737789 36.90947687 93.68370687 38.3359375 98.9140625 C38.92655096 100.98276651 38.92655096 100.98276651 40.0546875 102.953125 C41.62411356 106.31808087 41.07523548 109.5159536 39.9765625 112.9296875 C38.38305553 115.62726716 36.70376062 117.37614845 33.9765625 118.9296875 C29.48666847 119.95549809 26.30975669 119.76243342 22.375 117.3046875 C19.51915452 114.4767493 18.50522646 112.07697725 17.1640625 108.3046875 C16.53564453 106.58378906 16.53564453 106.58378906 15.89453125 104.828125 C14.9765625 101.9296875 14.9765625 101.9296875 14.9765625 99.9296875 C1.1165625 99.9296875 -12.7434375 99.9296875 -27.0234375 99.9296875 C-27.3534375 101.5796875 -27.6834375 103.2296875 -28.0234375 104.9296875 C-29.5015617 109.63215127 -31.04461682 113.78773004 -34.2734375 117.5546875 C-37.96964864 119.40279307 -41.0416133 119.89133561 -45.0234375 118.9296875 C-48.10459921 117.44142826 -50.12128487 115.78291644 -52.0234375 112.9296875 C-54.35542527 104.7677303 -49.93726 96.40237343 -47.0234375 88.9296875 C-46.46898398 87.28811769 -45.92518657 85.64285571 -45.3984375 83.9921875 C-44.37999013 80.88563855 -43.16788536 77.9273319 -41.83984375 74.9375 C-40.3968314 71.38865622 -39.26299367 67.73381347 -38.0859375 64.08984375 C-37.07982116 61.09738744 -35.97864288 58.15090737 -34.86642456 55.19673157 C-33.39510819 51.23992227 -31.99633815 47.25755321 -30.58984375 43.27734375 C-29.93441828 41.43027697 -29.27881382 39.5832737 -28.62304688 37.73632812 C-27.6033433 34.86266264 -26.58468645 31.98864582 -25.5690918 29.11352539 C-24.57928648 26.31279085 -23.58492904 23.51370601 -22.58984375 20.71484375 C-22.29179337 19.86769302 -21.99374298 19.0205423 -21.68666077 18.14772034 C-16.31579117 3.08232726 -16.31579117 3.08232726 -12.7109375 -0.1328125 C-8.13617916 -1.72865843 -4.5557043 -1.61274287 0 0 Z " fill="#060606" transform="translate(480.0234375,431.0703125)"/>
<path d="M0 0 C1.2684375 0.9590625 1.2684375 0.9590625 2.5625 1.9375 C3.76712891 2.82695313 3.76712891 2.82695313 4.99609375 3.734375 C12.41159635 10.10019458 17.07620761 19.78692864 17.83984375 29.4453125 C18.16916527 42.48644459 16.14608206 51.09632336 7.5625 60.9375 C6.964375 61.824375 6.36625 62.71125 5.75 63.625 C-1.28058357 71.0573312 -11.15604545 74.91659938 -21.21411133 75.33984375 C-32.70676108 75.53239076 -42.6117572 72.47009367 -51.4375 64.9375 C-57.20554456 59.00524065 -60.98621277 52.83147582 -63.4375 44.9375 C-63.72367187 44.02291016 -63.72367187 44.02291016 -64.015625 43.08984375 C-66.52412593 30.29184363 -63.39582723 19.12286716 -56.5859375 8.30078125 C-56.20695312 7.85089844 -55.82796875 7.40101563 -55.4375 6.9375 C-54.7775 6.9375 -54.1175 6.9375 -53.4375 6.9375 C-53.17710937 6.339375 -52.91671875 5.74125 -52.6484375 5.125 C-49.09338834 -1.29702429 -41.56602504 -4.35169137 -34.84375 -6.36328125 C-22.05587406 -8.98831542 -11.07416801 -7.03700296 0 0 Z " fill="#FBFBFB" transform="translate(513.4375,843.0625)"/>
<path d="M0 0 C7.03181883 4.27201897 12.78626822 8.88290425 17 16 C17.4846875 16.77601562 17.969375 17.55203125 18.46875 18.3515625 C23.59419388 27.77668431 23.5331159 39.23582958 20.875 49.5 C16.6555819 61.11325823 8.45194006 69.06682421 -2.25390625 74.73828125 C-12.0489496 79.23870657 -23.05035323 79.52250022 -33.375 76.5 C-45.12890133 71.94855723 -52.12253915 63.38717577 -57.3125 52.25 C-61.36805607 43.00949251 -61.34589232 31.87055815 -58.03125 22.40234375 C-53.48393643 11.80917008 -46.63416857 3.79047128 -36.1171875 -1.2109375 C-24.39759101 -5.57875759 -11.19530395 -6.00230152 0 0 Z " fill="#FCFCFC" transform="translate(509,66)"/>
<path d="M0 0 C9.52195581 5.54071417 16.9776979 14.52877945 20.140625 25.1328125 C22.47626006 37.61330518 20.7455216 48.88418483 13.85546875 59.68359375 C7.28015992 68.5076582 -1.50569605 74.57518166 -12.34765625 76.8671875 C-25.07517467 78.25488605 -35.08167323 76.96120187 -45.53515625 69.2421875 C-55.15986129 61.11566768 -60.55023703 51.17420901 -61.62109375 38.67578125 C-61.96724743 27.18614175 -59.57674051 18.1215979 -51.91015625 9.3671875 C-50.40955949 7.84694299 -48.89099244 6.34402447 -47.34765625 4.8671875 C-45.98640625 3.475 -45.98640625 3.475 -44.59765625 2.0546875 C-30.39919551 -7.50196877 -15.15657801 -7.31349022 0 0 Z " fill="#FBFBFB" transform="translate(220.34765625,142.1328125)"/>
<path d="M0 0 C2.26031905 1.45924092 4.39864301 3.00682076 6.53515625 4.640625 C7.58703125 5.383125 8.63890625 6.125625 9.72265625 6.890625 C17.70742034 14.69794989 21.6242073 24.55717575 21.91015625 35.578125 C21.5904377 47.98054054 17.1892345 58.02443846 8.59765625 67.015625 C-0.43488117 75.46980786 -11.32240515 78.30523246 -23.58984375 77.921875 C-33.43439272 76.9588213 -43.1168783 72.72670906 -49.77734375 65.265625 C-50.6997442 64.07744815 -51.59597351 62.86848953 -52.46484375 61.640625 C-53.14160156 60.69703125 -53.14160156 60.69703125 -53.83203125 59.734375 C-60.42261044 49.90700248 -61.46640728 40.2334351 -60.46484375 28.640625 C-58.3528075 18.13357675 -51.64886776 7.89728375 -42.703125 1.921875 C-29.41479203 -5.68471002 -13.89252429 -7.6618042 0 0 Z " fill="#FBFBFB" transform="translate(122.46484375,453.359375)"/>
<path d="M0 0 C8.815956 5.877304 13.91046128 14.76249666 16 25 C17.38701886 37.52606723 14.89798 49.52465441 7.171875 59.64453125 C-1.05738609 68.56943131 -9.6239238 73.29824496 -21.63671875 74.3046875 C-33.47820674 74.71177607 -43.98302946 71.95991893 -53 64 C-62.89451693 53.37018779 -66.89241104 42.11562064 -66.4453125 27.64453125 C-65.29564506 18.23541086 -60.70732407 9.69042904 -54 3 C-53.34 3 -52.68 3 -52 3 C-52 2.34 -52 1.68 -52 1 C-49.62109375 -0.65625 -49.62109375 -0.65625 -46.4375 -2.5 C-45.40496094 -3.1084375 -44.37242187 -3.716875 -43.30859375 -4.34375 C-28.43414321 -11.78975594 -13.42937739 -8.34727967 0 0 Z " fill="#FCFCFC" transform="translate(902,457)"/>
<path d="M0 0 C9.52139248 6.47454689 16.47121275 13.70221085 19.51953125 25.01953125 C21.17539752 34.92925398 21.56305757 45.34976048 16.02734375 54.05859375 C15.60324219 54.80238281 15.17914063 55.54617188 14.7421875 56.3125 C9.34414735 65.1989672 1.34553833 72.66776189 -8.81079102 75.58691406 C-21.18058347 78.28577787 -33.59144441 76.51517448 -44.28515625 70.05859375 C-45.17203125 69.39859375 -46.05890625 68.73859375 -46.97265625 68.05859375 C-47.76671875 67.4965625 -48.56078125 66.93453125 -49.37890625 66.35546875 C-52.3885657 63.69028839 -54.24866101 60.7894489 -56.16015625 57.30859375 C-56.50820312 56.67953125 -56.85625 56.05046875 -57.21484375 55.40234375 C-62.70018362 45.23029586 -63.80750413 34.1475972 -60.91015625 22.80859375 C-56.65997025 10.71343825 -47.55767005 2.43227873 -36.26953125 -2.99609375 C-24.58995649 -7.80299357 -10.68271084 -6.19522437 0 0 Z " fill="#FBFBFB" transform="translate(220.97265625,760.94140625)"/>
<path d="M0 0 C8.78694541 6.62552637 15.66586827 14.76854963 17.75 25.8125 C18.60088203 40.63748304 16.94143486 51.27869244 6.75 62.8125 C3.90479153 65.41153402 0.94327928 67.6610435 -2.25 69.8125 C-3.095625 70.410625 -3.94125 71.00875 -4.8125 71.625 C-14.11726842 76.15809231 -26.59242466 76.28507868 -36.5625 73.8125 C-46.97125383 70.06254492 -55.69791956 62.09046298 -60.52734375 52.1953125 C-65.32009173 40.69953977 -65.60576163 29.69547363 -61.57421875 17.85546875 C-57.35949196 8.1703001 -48.84661441 -0.06974582 -39.234375 -4.41015625 C-25.75439445 -9.69069981 -12.06290488 -7.93126774 0 0 Z " fill="#FBFBFB" transform="translate(803.25,144.1875)"/>
<path d="M0 0 C0.81726563 0.4021875 1.63453125 0.804375 2.4765625 1.21875 C12.87568195 6.87386028 19.86054548 15.60176115 23.609375 26.82421875 C25.63049354 38.081849 24.52825544 50.13054015 18.1640625 59.78515625 C12.48764813 67.16884468 6.56799398 72.3077153 -2 76 C-2.68964844 76.30164063 -3.37929688 76.60328125 -4.08984375 76.9140625 C-14.77370789 81.0485054 -25.66417852 79.49787353 -36 75 C-45.45095765 69.33516196 -53.90898273 60.24284493 -56.6875 49.4375 C-59.50043281 37.30765746 -58.36485919 26.78985452 -52.375 15.875 C-46.96354889 7.3057445 -38.61072449 0.64668948 -28.921875 -2.42578125 C-19.59617842 -4.25850504 -8.59853725 -4.34868551 0 0 Z " fill="#FCFCFC" transform="translate(797,759)"/>
<path d="M0 0 C2.45243461 1.90063682 3.62927427 3.25854855 5 6 C5.10431409 7.41793269 5.14809591 8.84055872 5.16062927 10.26226807 C5.1706749 11.15666092 5.18072052 12.05105377 5.19107056 12.97254944 C5.19690155 13.95646164 5.20273254 14.94037384 5.20874023 15.95410156 C5.22341591 17.50553108 5.22341591 17.50553108 5.23838806 19.08830261 C5.26838334 22.52239689 5.28973885 25.95645212 5.30859375 29.390625 C5.31516558 30.56178612 5.3217374 31.73294724 5.32850838 32.93959808 C5.36111996 39.13859347 5.38556656 45.33757152 5.4050293 51.53662109 C5.42284877 56.67196609 5.45767783 61.80676266 5.50756836 66.94189453 C5.56768653 73.13638635 5.59849394 79.33036918 5.60820198 85.52513885 C5.61677213 87.88708157 5.63562825 90.24901013 5.6649456 92.61078644 C5.7037796 95.91723644 5.70490449 99.2216971 5.69702148 102.52832031 C5.71702209 103.50413559 5.73702271 104.47995087 5.75762939 105.4853363 C5.70773928 110.14678326 5.4717803 113.1250293 2.20643616 116.61541748 C-1.21380074 119.15900067 -2.90326864 119.79370252 -7.0390625 119.4609375 C-10.31915661 118.68991936 -12.46937693 117.16910549 -15 115 C-16.77631688 112.11319207 -17.25362772 109.94020052 -17.27415466 106.57315063 C-17.28412979 105.69283676 -17.29410492 104.81252289 -17.30438232 103.90553284 C-17.305047 102.94751266 -17.30571167 101.98949249 -17.30639648 101.00244141 C-17.31472 99.98737015 -17.32304352 98.97229889 -17.33161926 97.9264679 C-17.35573109 94.56812718 -17.36449264 91.20998062 -17.37109375 87.8515625 C-17.38005872 85.51752666 -17.38918054 83.18349142 -17.39845276 80.84945679 C-17.41494822 75.95528771 -17.42264398 71.06118708 -17.42553711 66.16699219 C-17.43092332 59.8965329 -17.46861166 53.62671708 -17.51428127 47.35643959 C-17.54402598 42.53514252 -17.55126011 37.71400094 -17.55226326 32.89262009 C-17.55647018 30.58094712 -17.56892325 28.26927389 -17.58978081 25.95769119 C-17.61664197 22.72342868 -17.61188468 19.49066483 -17.59936523 16.25634766 C-17.61419952 15.30237595 -17.62903381 14.34840424 -17.64431763 13.36552429 C-17.59602319 8.9832838 -17.42604405 5.93479877 -14.65003967 2.42147827 C-10.0649658 -1.7681408 -5.76576438 -1.37627649 0 0 Z " fill="#030303" transform="translate(547,431)"/>
<path d="M0 0 C0.66 0 1.32 0 2 0 C10.73786408 22.95145631 10.73786408 22.95145631 13 32 C5.41 32 -2.18 32 -10 32 C-8.887065 23.09652003 -8.887065 23.09652003 -7.1875 19.8125 C-4.85128782 14.93544391 -3.35292651 9.90339508 -1.83203125 4.72265625 C-1 2 -1 2 0 0 Z " fill="#F0F0F0" transform="translate(473,476)"/>
<path d="M0 0 C0.33 1.32 0.66 2.64 1 4 C0.34 4 -0.32 4 -1 4 C-1 4.66 -1 5.32 -1 6 C-4.46153846 9 -4.46153846 9 -7 9 C-6.67 9.99 -6.34 10.98 -6 12 C-5.9204843 13.90309334 -5.90247181 15.80897598 -5.91770935 17.71366882 C-5.92474884 18.90418854 -5.93178833 20.09470825 -5.93904114 21.32130432 C-5.95198715 22.62897263 -5.96493317 23.93664093 -5.97827148 25.28393555 C-5.98841474 26.67351982 -5.99810836 28.06310743 -6.00738525 29.45269775 C-6.03386163 33.22723913 -6.06664209 37.00170276 -6.10053515 40.77618384 C-6.13488274 44.71996843 -6.16345937 48.66379467 -6.19264221 52.60762024 C-6.24879122 60.07678417 -6.31014729 67.54589593 -6.37336355 75.01500303 C-6.44507678 83.51790316 -6.51100128 92.02084506 -6.57643402 100.52379549 C-6.71117109 118.01591823 -6.85319568 135.50797445 -7 153 C-7.33 153 -7.66 153 -8 153 C-8.18704338 134.23269669 -8.32803388 115.46558302 -8.41449738 96.69754028 C-8.45571469 87.98277594 -8.51188796 79.26859137 -8.60351562 70.55419922 C-8.68335877 62.95695762 -8.73489039 55.36013597 -8.75270796 47.76248646 C-8.76312055 43.74087842 -8.78751516 39.72047153 -8.84584045 35.69924927 C-8.90035206 31.91007817 -8.9168522 28.12259673 -8.90486145 24.33307076 C-8.90705321 22.94631308 -8.92284719 21.55949595 -8.9536438 20.17307854 C-9.17492298 9.69284054 -9.17492298 9.69284054 -6.15794373 5.34594727 C-4.19866886 3.3690563 -2.24823179 1.63588362 0 0 Z " fill="#E3E3E3" transform="translate(678,632)"/>
<path d="M0 0 C4.53786224 2.26893112 5.94678157 4.09866534 9 8 C6.03824877 7.38722388 4.61941217 6.74627478 2 5 C1.67 47.24 1.34 89.48 1 133 C0.67 133 0.34 133 0 133 C0 89.11 0 45.22 0 0 Z " fill="#C8C8C8" transform="translate(333,665)"/>
<path d="M0 0 C0.99 0.33 1.98 0.66 3 1 C3 46.21 3 91.42 3 138 C3.99 138.33 4.98 138.66 6 139 C4.625 140.5 4.625 140.5 3 142 C2.34 142 1.68 142 1 142 C0.67 95.14 0.34 48.28 0 0 Z " fill="#C9C9C9" transform="translate(332,173)"/>
<path d="M0 0 C1.32 0.33 2.64 0.66 4 1 C0.25 4 0.25 4 -2 4 C-2.66 6.31 -3.32 8.62 -4 11 C-4.59780273 11.11102051 -5.19560547 11.22204102 -5.81152344 11.33642578 C-9.41632598 12.42944824 -11.67739436 15.24700332 -14.25 17.875 C-14.80429687 18.41769531 -15.35859375 18.96039063 -15.9296875 19.51953125 C-19.26433104 22.65822874 -19.26433104 22.65822874 -20 27 C-22.97411124 28.23921302 -25.85262818 29.30058404 -29 30 C-28.01 28.515 -28.01 28.515 -27 27 C-26.34 27 -25.68 27 -25 27 C-24.79375 26.443125 -24.5875 25.88625 -24.375 25.3125 C-22.84206928 22.73438925 -20.97969507 21.26273407 -18.64453125 19.421875 C-16.29233001 17.38814281 -14.42220537 15.02371435 -12.4453125 12.6328125 C-10.52143354 10.45934924 -8.27968881 8.78678312 -6 7 C-5.443125 6.2575 -4.88625 5.515 -4.3125 4.75 C-3.879375 4.1725 -3.44625 3.595 -3 3 C-2.34 3 -1.68 3 -1 3 C-0.67 2.01 -0.34 1.02 0 0 Z " fill="#D4D4D4" transform="translate(352,328)"/>
<path d="M0 0 C0.66 0.33 1.32 0.66 2 1 C0.68 2.65 -0.64 4.3 -2 6 C-1.34 6 -0.68 6 0 6 C-0.33 6.99 -0.66 7.98 -1 9 C-1.66 9.309375 -2.32 9.61875 -3 9.9375 C-5.15839612 10.79049955 -5.15839612 10.79049955 -5.60522461 12.79589844 C-5.99864377 14.99242793 -6.20500241 17.10004823 -6.31640625 19.328125 C-6.35830078 20.12734375 -6.40019531 20.9265625 -6.44335938 21.75 C-6.48267578 22.575 -6.52199219 23.4 -6.5625 24.25 C-6.60568359 25.09046875 -6.64886719 25.9309375 -6.69335938 26.796875 C-6.79908543 28.86440671 -6.90001295 30.93218281 -7 33 C-7.33 33 -7.66 33 -8 33 C-8.1173794 29.50028801 -8.18763961 26.00109045 -8.25 22.5 C-8.28351562 21.51773438 -8.31703125 20.53546875 -8.3515625 19.5234375 C-8.43672107 13.13654509 -7.73612192 8.30179891 -4 3 C-1.75 1 -1.75 1 0 0 Z " fill="#424242" transform="translate(528,655)"/>
<path d="M0 0 C8.91 0 17.82 0 27 0 C27 0.33 27 0.66 27 1 C24.94921875 1.22786458 22.8984375 1.45572917 20.84765625 1.68359375 C18.98859771 1.81886614 18.98859771 1.81886614 18 3 C15.13732433 3.07325168 12.299281 3.09238205 9.4375 3.0625 C8.63119141 3.05798828 7.82488281 3.05347656 6.99414062 3.04882812 C4.99606244 3.03700518 2.99802217 3.01906914 1 3 C0.67 2.01 0.34 1.02 0 0 Z " fill="#EDEDED" transform="translate(502,724)"/>
<path d="M0 0 C1 3 1 3 1 5 C0.38125 5.2475 -0.2375 5.495 -0.875 5.75 C-3.43758488 7.25740287 -3.69424796 8.38376493 -5 11 C-6.5859375 12.95703125 -6.5859375 12.95703125 -8.375 14.8125 C-8.96023438 15.43769531 -9.54546875 16.06289063 -10.1484375 16.70703125 C-12 18 -12 18 -14.2265625 17.69921875 C-14.81179688 17.46847656 -15.39703125 17.23773437 -16 17 C-14.7934375 16.1028125 -14.7934375 16.1028125 -13.5625 15.1875 C-8.65663172 11.13839819 -4.94484895 5.94974732 -1 1 C-0.67 0.67 -0.34 0.34 0 0 Z " fill="#E0E0E0" transform="translate(587,563)"/>
<path d="M0 0 C0.66 0.33 1.32 0.66 2 1 C-0.3125 3.5 -0.3125 3.5 -3 6 C-3.99 6 -4.98 6 -6 6 C-6.33 6.66 -6.66 7.32 -7 8 C-7.66 8 -8.32 8 -9 8 C-9.33 8.99 -9.66 9.98 -10 11 C-10.99 11.495 -10.99 11.495 -12 12 C-12.66 12.99 -13.32 13.98 -14 15 C-14.33 13.68 -14.66 12.36 -15 11 C-14.34 11 -13.68 11 -13 11 C-12.62681641 10.10861328 -12.62681641 10.10861328 -12.24609375 9.19921875 C-10.81934287 6.68115999 -9.39572921 5.50267908 -7.0625 3.8125 C-6.02802734 3.04873047 -6.02802734 3.04873047 -4.97265625 2.26953125 C-3 1 -3 1 0 0 Z " fill="#D2D2D2" transform="translate(473,839)"/>
<path d="M0 0 C0.66 0.33 1.32 0.66 2 1 C0 4 0 4 -3 5 C-6.54844404 8.16093178 -6.54844404 8.16093178 -8.9375 12.1875 C-10 14 -10 14 -13.125 15.25 C-14.07375 15.4975 -15.0225 15.745 -16 16 C-11.63788101 9.33269617 -6.36900182 4.732697 0 0 Z " fill="#272727" transform="translate(746,742)"/>
<path d="M0 0 C0.93423645 3.01031744 1.04449911 3.86650268 0 7 C0.66 7.33 1.32 7.66 2 8 C1.56429687 8.35191406 1.12859375 8.70382812 0.6796875 9.06640625 C-3.70232497 12.69911356 -7.42563217 16.57459221 -11 21 C-11.66 20.67 -12.32 20.34 -13 20 C-12.46890625 19.45472656 -11.9378125 18.90945313 -11.390625 18.34765625 C-6.5864816 13.2191455 -3.4568306 8.56542868 -1 2 C-0.67 1.34 -0.34 0.68 0 0 Z " fill="#2C2C2C" transform="translate(819,808)"/>
<path d="M0 0 C1.125 3.75 1.125 3.75 0 6 C-4.5 9 -4.5 9 -7 9 C-7.33 10.65 -7.66 12.3 -8 14 C-9.32 13.67 -10.64 13.34 -12 13 C-10.56354149 11.39490066 -9.12579294 9.79095576 -7.6875 8.1875 C-6.88699219 7.29417969 -6.08648437 6.40085937 -5.26171875 5.48046875 C-3.54775419 3.60073214 -1.82122396 1.77407253 0 0 Z " fill="#DBDBDB" transform="translate(342,594)"/>
<path d="M0 0 C0 3.52032428 -0.70351351 4.4385343 -3 7 C-3.66 7 -4.32 7 -5 7 C-5.33 7.99 -5.66 8.98 -6 10 C-7.98260426 11.68732277 -9.9832342 13.35366057 -12 15 C-12.66 15.99 -13.32 16.98 -14 18 C-14.33 17.01 -14.66 16.02 -15 15 C-10 10 -5 5 0 0 Z " fill="#1C1C1C" transform="translate(353,296)"/>
<path d="M0 0 C2.05807347 3.97894203 3.20597952 6.93090243 2.75 11.4375 C2.68296875 12.19933594 2.6159375 12.96117187 2.546875 13.74609375 C1.90195485 16.40408608 0.75367589 17.93047388 -1 20 C-1.02712351 17.60408962 -1.0468982 15.20849043 -1.0625 12.8125 C-1.07087891 12.13896484 -1.07925781 11.46542969 -1.08789062 10.77148438 C-1.10606538 7.04565869 -0.89299392 3.6211958 0 0 Z " fill="#484848" transform="translate(427,864)"/>
<path d="M0 0 C0.99 0.66 1.98 1.32 3 2 C2.25 3.9375 2.25 3.9375 1 6 C-0.875 6.5625 -0.875 6.5625 -3 7 C-5.2072358 8.48800372 -5.2072358 8.48800372 -7 10 C-7.66 9.67 -8.32 9.34 -9 9 C-6.03 6.03 -3.06 3.06 0 0 Z " fill="#EEEEEE" transform="translate(668,386)"/>
<path d="M0 0 C0.99 0.33 1.98 0.66 3 1 C-0.20760251 4.80635497 -3.40746109 8.54563567 -7 12 C-6.6257368 6.63556087 -5.0040457 4.50353999 -1 1 C-0.67 0.67 -0.34 0.34 0 0 Z " fill="#E9E9E9" transform="translate(650,368)"/>
<path d="M0 0 C0 3.58689829 -0.74229829 4.32420538 -3 7 C-3.556875 7.53625 -4.11375 8.0725 -4.6875 8.625 C-6.23015858 9.92430797 -6.23015858 9.92430797 -6 12 C-7.98 12 -9.96 12 -12 12 C-8.39424999 7.41086363 -4.52615993 3.67832017 0 0 Z " fill="#DADADA" transform="translate(610,327)"/>
<path d="M0 0 C7.09543568 4.41493776 7.09543568 4.41493776 9 8 C8.56640625 10.125 8.56640625 10.125 8 12 C7.52949219 11.45730469 7.05898438 10.91460937 6.57421875 10.35546875 C5.95160156 9.64003906 5.32898438 8.92460937 4.6875 8.1875 C4.07261719 7.47980469 3.45773437 6.77210938 2.82421875 6.04296875 C1.26665665 4.29863261 -0.32658875 2.63221959 -2 1 C-1.34 0.67 -0.68 0.34 0 0 Z " fill="#E5E5E5" transform="translate(574,399)"/>
<path d="M0 0 C1.65 0 3.3 0 5 0 C5 0.99 5 1.98 5 3 C0.13948404 5.59227518 -4.65271133 5.18689553 -10 5 C-8.73046875 3.51171875 -8.73046875 3.51171875 -7 2 C-3.3125 1.8125 -3.3125 1.8125 0 2 C0 1.34 0 0.68 0 0 Z " fill="#101010" transform="translate(712,537)"/>
<path d="M0 0 C0.66 0 1.32 0 2 0 C3.81772642 4.20349235 4.48844712 6.53465864 3 11 C1.35 11 -0.3 11 -2 11 C-1.34 9.68 -0.68 8.36 0 7 C0.66 7 1.32 7 2 7 C1.2265625 5.824375 1.2265625 5.824375 0.4375 4.625 C-0.036875 3.75875 -0.51125 2.8925 -1 2 C-0.67 1.34 -0.34 0.68 0 0 Z " fill="#212121" transform="translate(658,356)"/>
<path d="M0 0 C1.32 0.66 2.64 1.32 4 2 C3.195625 2.61875 2.39125 3.2375 1.5625 3.875 C-1.03874519 5.74164041 -1.03874519 5.74164041 -2 8 C-4.4375 7.625 -4.4375 7.625 -7 7 C-7.33 6.34 -7.66 5.68 -8 5 C-7.030625 4.71125 -6.06125 4.4225 -5.0625 4.125 C-1.89335797 3.35785318 -1.89335797 3.35785318 -1 1 C-0.67 0.67 -0.34 0.34 0 0 Z " fill="#D2D2D2" transform="translate(586,314)"/>
<path d="M0 0 C3.125 0.375 3.125 0.375 6 1 C3.14723863 3.93200474 0.34920216 6.64315404 -3 9 C-4 6 -4 6 -3.1875 3.9375 C-2 2 -2 2 0 0 Z " fill="#E3E3E3" transform="translate(447,824)"/>
<path d="M0 0 C0.33 0.66 0.66 1.32 1 2 C1.66 2.33 2.32 2.66 3 3 C-2.15946865 4.7041678 -6.4425333 5.22225605 -11.9375 5.125 C-12.62134766 5.11597656 -13.30519531 5.10695313 -14.00976562 5.09765625 C-15.67333287 5.07438958 -17.33671631 5.03853167 -19 5 C-19 4.67 -19 4.34 -19 4 C-18.00097656 3.95101562 -17.00195312 3.90203125 -15.97265625 3.8515625 C-14.68230469 3.77679687 -13.39195312 3.70203125 -12.0625 3.625 C-10.77472656 3.55539062 -9.48695313 3.48578125 -8.16015625 3.4140625 C-7.11730469 3.27742187 -6.07445312 3.14078125 -5 3 C-4.67 2.34 -4.34 1.68 -4 1 C-1.9375 0.375 -1.9375 0.375 0 0 Z " fill="#D6D6D6" transform="translate(888,526)"/>
<path d="M0 0 C0.99 0 1.98 0 3 0 C3 0.66 3 1.32 3 2 C3.99 1.67 4.98 1.34 6 1 C6 2.32 6 3.64 6 5 C6.66 5.66 7.32 6.32 8 7 C7.01 7.99 6.02 8.98 5 10 C4.1641146 8.52227402 3.33135744 7.04277811 2.5 5.5625 C2.0359375 4.73878906 1.571875 3.91507812 1.09375 3.06640625 C0 1 0 1 0 0 Z " fill="#ECECEC" transform="translate(839,505)"/>
<path d="M0 0 C0.99 0 1.98 0 3 0 C3.09765625 6.15234375 3.09765625 6.15234375 3 8 C2.67 8.33 2.34 8.66 2 9 C1.76807135 10.51469448 1.58784762 12.03754562 1.4375 13.5625 C1.35371094 14.38878906 1.26992188 15.21507812 1.18359375 16.06640625 C1.12300781 16.70449219 1.06242188 17.34257812 1 18 C0.67 18 0.34 18 0 18 C0 12.06 0 6.12 0 0 Z " fill="#BDBDBD" transform="translate(940,480)"/>
<path d="M0 0 C0.66 0.33 1.32 0.66 2 1 C1.360625 2.051875 0.72125 3.10375 0.0625 4.1875 C-1.61754452 7.10828412 -2.58996052 9.6171743 -3 13 C-4.32 12.01 -5.64 11.02 -7 10 C-5.63055898 7.05043472 -4.12169591 4.47531189 -2 2 C-1.34 2 -0.68 2 0 2 C0 1.34 0 0.68 0 0 Z " fill="#E4E4E4" transform="translate(850,458)"/>
<path d="M0 0 C5.28 0 10.56 0 16 0 C15.01 1.485 15.01 1.485 14 3 C12.0546875 3.29296875 12.0546875 3.29296875 9.875 3.1875 C8.59625 3.125625 7.3175 3.06375 6 3 C6 2.34 6 1.68 6 1 C4.02 1 2.04 1 0 1 C0 0.67 0 0.34 0 0 Z " fill="#DFDFDF" transform="translate(482,62)"/>
<path d="M0 0 C0.33 0 0.66 0 1 0 C1.05407567 2.58361518 1.093707 5.16609255 1.125 7.75 C1.14175781 8.47960937 1.15851562 9.20921875 1.17578125 9.9609375 C1.21072239 13.8044624 1.17499684 16.74606772 -1 20 C-1 19.01 -1 18.02 -1 17 C-1.66 17 -2.32 17 -3 17 C-3 15.35 -3 13.7 -3 12 C-2.34 12 -1.68 12 -1 12 C-0.67 8.04 -0.34 4.08 0 0 Z " fill="#D6D6D6" transform="translate(820,788)"/>
<path d="M0 0 C-3.96 3.465 -3.96 3.465 -8 7 C-8.66 6.67 -9.32 6.34 -10 6 C-10 5.01 -10 4.02 -10 3 C-8.68 2.67 -7.36 2.34 -6 2 C-6 1.34 -6 0.68 -6 0 C-4 -1 -4 -1 0 0 Z " fill="#E1E1E1" transform="translate(382,642)"/>
<path d="M0 0 C0.66 0.33 1.32 0.66 2 1 C0.52202738 4.67056937 -1.47615477 6.41085783 -4.625 8.75 C-5.44226562 9.36359375 -6.25953125 9.9771875 -7.1015625 10.609375 C-7.72804687 11.06828125 -8.35453125 11.5271875 -9 12 C-9.66 11.67 -10.32 11.34 -11 11 C-7.6381774 6.74828319 -4.25171681 3.3618226 0 0 Z " fill="#222222" transform="translate(64,439)"/>
<path d="M0 0 C2.31 1.98 4.62 3.96 7 6 C6.67 6.66 6.34 7.32 6 8 C3.03 7.505 3.03 7.505 0 7 C-0.38133299 5.0085944 -0.71325582 3.00720923 -1 1 C-0.67 0.67 -0.34 0.34 0 0 Z " fill="#E1E1E1" transform="translate(441,144)"/>
<path d="M0 0 C4.50884026 2.31883213 6.93906776 5.06451569 10 9 C9.67 9.66 9.34 10.32 9 11 C6.5625 10.25 6.5625 10.25 4 9 C3.1875 6.875 3.1875 6.875 3 5 C2.34 5 1.68 5 1 5 C1 4.34 1 3.68 1 3 C0.34 2.34 -0.32 1.68 -1 1 C-0.67 0.67 -0.34 0.34 0 0 Z " fill="#D4D4D4" transform="translate(515,71)"/>
<path d="M0 0 C6.4 -0.49230769 6.4 -0.49230769 9.4375 2 C10.2109375 2.99 10.2109375 2.99 11 4 C10.67 4.66 10.34 5.32 10 6 C6.40992874 4.66654496 3.20429093 3.1056769 0 1 C0 0.67 0 0.34 0 0 Z " fill="#1B1B1B" transform="translate(454,929)"/>
<path d="M0 0 C0.33 1.32 0.66 2.64 1 4 C0.34 4 -0.32 4 -1 4 C-1 4.66 -1 5.32 -1 6 C-4.46153846 9 -4.46153846 9 -7 9 C-6.67 9.99 -6.34 10.98 -6 12 C-6.66 12.66 -7.32 13.32 -8 14 C-8.5 11.5 -8.5 11.5 -8 8 C-5.58622266 5.04629878 -2.86095001 2.51610335 0 0 Z " fill="#D5D5D5" transform="translate(678,632)"/>
<path d="M0 0 C0.66 0.33 1.32 0.66 2 1 C0.60878255 3.7824349 -1.30164212 4.55210065 -4 6 C-4.66 6 -5.32 6 -6 6 C-6.33 6.99 -6.66 7.98 -7 9 C-9.475 8.01 -9.475 8.01 -12 7 C-9.5129261 5.34195074 -7.02682498 3.80125522 -4.4375 2.3125 C-3.65246094 1.85488281 -2.86742187 1.39726563 -2.05859375 0.92578125 C-1.37925781 0.62027344 -0.69992188 0.31476562 0 0 Z " fill="#DFDFDF" transform="translate(137,543)"/>
<path d="M0 0 C0 3.68553144 -0.8522582 5.03759752 -3 8 C-5.2784514 9.55601559 -7.53923634 10.76961817 -10 12 C-7.87880087 6.98625661 -4.506805 3.00453667 0 0 Z " fill="#D3D3D3" transform="translate(465,70)"/>
<path d="M0 0 C0.66 0.33 1.32 0.66 2 1 C0.63589551 6.59282842 -2.15383526 9.91193811 -6 14 C-6.66 13.67 -7.32 13.34 -8 13 C-7.59007812 12.39671875 -7.18015625 11.7934375 -6.7578125 11.171875 C-6.21898437 10.37265625 -5.68015625 9.5734375 -5.125 8.75 C-4.59132812 7.96109375 -4.05765625 7.1721875 -3.5078125 6.359375 C-2.18177985 4.28444308 -1.05071825 2.22385028 0 0 Z " fill="#2D2D2D" transform="translate(141,504)"/>
<path d="M0 0 C0 3 0 3 -2 5.1875 C-2.66 5.785625 -3.32 6.38375 -4 7 C-4.99 6.67 -5.98 6.34 -7 6 C-9.3406065 6.27769908 -11.67624308 6.60539977 -14 7 C-11.46702371 5.31134914 -9.20879805 4.13824363 -6.4375 2.9375 C-3.19210535 1.52580608 -3.19210535 1.52580608 0 0 Z " fill="#353535" transform="translate(803,830)"/>
<path d="M0 0 C2.16866801 2.16866801 3.45460528 4.35995069 5 7 C5.99 8.485 5.99 8.485 7 10 C5.02 10.99 5.02 10.99 3 12 C2.566875 11.1028125 2.566875 11.1028125 2.125 10.1875 C0.95257974 7.80672208 0.95257974 7.80672208 -1 5 C-0.625 2.3125 -0.625 2.3125 0 0 Z " fill="#D8D8D8" transform="translate(634,588)"/>
<path d="M0 0 C0.66 0.66 1.32 1.32 2 2 C1.8625607 6.94781498 -0.8263331 9.5008288 -4 13 C-4.33 12.01 -4.66 11.02 -5 10 C-4.34 9.01 -3.68 8.02 -3 7 C-2.34 7 -1.68 7 -1 7 C-0.67 4.69 -0.34 2.38 0 0 Z " fill="#DEDEDE" transform="translate(319,578)"/>
<path d="M0 0 C3 0 3 0 5.625 2.375 C8 5 8 5 9 7 C8.34 7 7.68 7 7 7 C6.67 7.66 6.34 8.32 6 9 C6 8.34 6 7.68 6 7 C5.34 7 4.68 7 4 7 C3.731875 6.195625 3.46375 5.39125 3.1875 4.5625 C2.795625 3.716875 2.40375 2.87125 2 2 C1.01 1.67 0.02 1.34 -1 1 C-0.67 0.67 -0.34 0.34 0 0 Z " fill="#D6D6D6" transform="translate(581,658)"/>
<path d="M0 0 C0 2.66420516 -0.09162237 4.52260646 -1 7 C-1.99 7.33 -2.98 7.66 -4 8 C-4.66 8.99 -5.32 9.98 -6 11 C-6.71484375 9.234375 -6.71484375 9.234375 -7 7 C-5.56640625 5.078125 -5.56640625 5.078125 -3.5625 3.25 C-2.90378906 2.63640625 -2.24507813 2.0228125 -1.56640625 1.390625 C-1.04949219 0.93171875 -0.53257812 0.4728125 0 0 Z " fill="#D4D4D4" transform="translate(327,610)"/>
<path d="M0 0 C0.66 0.33 1.32 0.66 2 1 C0.25 3.0625 0.25 3.0625 -2 5 C-3.34386088 4.71202981 -4.6757713 4.36784131 -6 4 C-8.08234592 3.93256652 -10.16668557 3.91485528 -12.25 3.9375 C-13.32765625 3.94652344 -14.4053125 3.95554687 -15.515625 3.96484375 C-16.74539062 3.98224609 -16.74539062 3.98224609 -18 4 C-18 3.67 -18 3.34 -18 3 C-16.95199219 2.86722656 -15.90398437 2.73445312 -14.82421875 2.59765625 C-13.44529222 2.41942765 -12.06638707 2.24103359 -10.6875 2.0625 C-9.65206055 1.93198242 -9.65206055 1.93198242 -8.59570312 1.79882812 C-5.59857712 1.40789865 -2.87549881 0.9584996 0 0 Z " fill="#373737" transform="translate(116,528)"/>
<path d="M0 0 C3.91211733 1.15585285 6.8745041 2.35534962 10 5 C9.34 5 8.68 5 8 5 C8 5.66 8 6.32 8 7 C6.68 7 5.36 7 4 7 C3.34 6.34 2.68 5.68 2 5 C2.33 4.34 2.66 3.68 3 3 C2.01 2.01 1.02 1.02 0 0 Z " fill="#252525" transform="translate(533,376)"/>
<path d="M0 0 C2.12169591 2.47531189 3.63055898 5.05043472 5 8 C2 8 2 8 0.39453125 6.46875 C-0.12753906 5.8190625 -0.64960937 5.169375 -1.1875 4.5 C-1.71730469 3.8503125 -2.24710938 3.200625 -2.79296875 2.53125 C-3.19128906 2.0259375 -3.58960938 1.520625 -4 1 C-2 0 -2 0 0 0 Z " fill="#DADADA" transform="translate(636,300)"/>
<path d="M0 0 C0.66 0.33 1.32 0.66 2 1 C0.50924025 5.72073922 0.50924025 5.72073922 -1.9375 7.0625 C-2.618125 7.371875 -3.29875 7.68125 -4 8 C-5.73425773 10.03317007 -5.73425773 10.03317007 -7 12 C-7.66 11.67 -8.32 11.34 -9 11 C-6.03 7.37 -3.06 3.74 0 0 Z " fill="#2E2E2E" transform="translate(446,56)"/>
<path d="M0 0 C6.64615385 1.47692308 6.64615385 1.47692308 8.4375 4.125 C8.7159375 5.053125 8.7159375 5.053125 9 6 C8.01 6.495 8.01 6.495 7 7 C4.8359375 6.00390625 4.8359375 6.00390625 2.375 4.5625 C1.55773437 4.08941406 0.74046875 3.61632812 -0.1015625 3.12890625 C-0.72804688 2.75636719 -1.35453125 2.38382813 -2 2 C-1.34 1.34 -0.68 0.68 0 0 Z " fill="#DFDFDF" transform="translate(519,818)"/>
<path d="M0 0 C3.3 0 6.6 0 10 0 C6.09987886 2.92509086 4.61691161 3.47535095 0 4 C-0.33 3.34 -0.66 2.68 -1 2 C-0.67 1.34 -0.34 0.68 0 0 Z " fill="#DDDDDD" transform="translate(752,735)"/>
<path d="M0 0 C4.75286041 4.29290618 4.75286041 4.29290618 5 8 C4.34 8.66 3.68 9.32 3 10 C0.7522025 7.94766315 -0.0022242 6.99332739 -1 4 C-0.5625 1.8125 -0.5625 1.8125 0 0 Z " fill="#1C1C1C" transform="translate(251,141)"/>
<path d="M0 0 C1.46080933 0.61919078 2.91857455 1.24556692 4.375 1.875 C5.18710937 2.22304688 5.99921875 2.57109375 6.8359375 2.9296875 C9 4 9 4 11 6 C10.01 6.495 10.01 6.495 9 7 C8.484375 6.484375 7.96875 5.96875 7.4375 5.4375 C4.0289729 3.42734299 1.76893143 4.20272604 -2 5 C-1.34 3.35 -0.68 1.7 0 0 Z " fill="#E8E8E8" transform="translate(531,400)"/>
<path d="M0 0 C1.65 0 3.3 0 5 0 C5 0.99 5 1.98 5 3 C3.02 3.99 1.04 4.98 -1 6 C-1.66 5.34 -2.32 4.68 -3 4 C-2.505 3.525625 -2.01 3.05125 -1.5 2.5625 C0.11542197 1.24076302 0.11542197 1.24076302 0 0 Z " fill="#E8E8E8" transform="translate(219,209)"/>
<path d="M0 0 C4.875 4.625 4.875 4.625 6 8 C5.34 8.66 4.68 9.32 4 10 C4 9.34 4 8.68 4 8 C3.34 8 2.68 8 2 8 C0 2.25 0 2.25 0 0 Z " fill="#DBDBDB" transform="translate(229,768)"/>
<path d="M0 0 C1.98 0.66 3.96 1.32 6 2 C6 2.66 6 3.32 6 4 C7.32 4.66 8.64 5.32 10 6 C9.01 6.33 8.02 6.66 7 7 C5.17578125 6.07421875 5.17578125 6.07421875 3.3125 4.6875 C2.37857422 4.01267578 2.37857422 4.01267578 1.42578125 3.32421875 C0.95527344 2.88722656 0.48476562 2.45023438 0 2 C0 1.34 0 0.68 0 0 Z " fill="#E6E6E6" transform="translate(231,739)"/>
<path d="M0 0 C3.68754757 0.49831724 5.60490662 1.10067643 8 4 C7.34 4.66 6.68 5.32 6 6 C2.535 4.02 2.535 4.02 -1 2 C-0.67 1.34 -0.34 0.68 0 0 Z " fill="#1D1D1D" transform="translate(427,592)"/>
<path d="M0 0 C0.66 0.33 1.32 0.66 2 1 C1.34 2.32 0.68 3.64 0 5 C-0.66 5 -1.32 5 -2 5 C-2 5.66 -2 6.32 -2 7 C-3.98 7.33 -5.96 7.66 -8 8 C-5.33333333 5.33333333 -2.66666667 2.66666667 0 0 Z " fill="#D2D2D2" transform="translate(80,455)"/>
<path d="M0 0 C1.65 0 3.3 0 5 0 C3.515 3.96 3.515 3.96 2 8 C0 6 0 6 -0.125 2.875 C-0.08375 1.92625 -0.0425 0.9775 0 0 Z " fill="#EBEBEB" transform="translate(314,402)"/>
<path d="M0 0 C0.66 0.33 1.32 0.66 2 1 C0.50164772 5.66154042 -2.88463591 6.86610751 -7 9 C-5.64978174 4.58110387 -3.73884332 2.65654657 0 0 Z " fill="#232323" transform="translate(446,257)"/>
<path d="M0 0 C0.99 0.33 1.98 0.66 3 1 C2.67 1.66 2.34 2.32 2 3 C3.65 2.34 5.3 1.68 7 1 C7 2.32 7 3.64 7 5 C1.46153846 4.38461538 1.46153846 4.38461538 -0.875 2.4375 C-1.24625 1.963125 -1.6175 1.48875 -2 1 C-1.34 0.67 -0.68 0.34 0 0 Z " fill="#D6D6D6" transform="translate(761,212)"/>
<path d="M0 0 C-4.875 3.25 -4.875 3.25 -7 4 C-9.75 3.125 -9.75 3.125 -12 2 C-7.89783794 -0.73477471 -4.73617773 -1.57872591 0 0 Z " fill="#323232" transform="translate(481,41)"/>
<path d="M0 0 C1.98 1.65 3.96 3.3 6 5 C5 7 5 7 3 8 C3 7.34 3 6.68 3 6 C2.34 6 1.68 6 1 6 C-0.0625 4.125 -0.0625 4.125 -1 2 C-0.67 1.34 -0.34 0.68 0 0 Z " fill="#DDDDDD" transform="translate(304,635)"/>
<path d="M0 0 C3.08089673 2.77280706 4.68775452 5.06326356 6 9 C5.01 9.495 5.01 9.495 4 10 C3.34 8.35 2.68 6.7 2 5 C1.34 5.66 0.68 6.32 0 7 C-1.125 2.25 -1.125 2.25 0 0 Z " fill="#D1D1D1" transform="translate(568,429)"/>
<path d="M0 0 C0.66 0.33 1.32 0.66 2 1 C0.47005208 2.23697917 -1.05989583 3.47395833 -2.58984375 4.7109375 C-4.13266437 5.9666391 -4.13266437 5.9666391 -5 8 C-6.32 7.34 -7.64 6.68 -9 6 C-6.03 4.02 -3.06 2.04 0 0 Z " fill="#CFCFCF" transform="translate(817,229)"/>
<path d="M0 0 C0.99 0.99 1.98 1.98 3 3 C1.02 4.32 -0.96 5.64 -3 7 C-3.66 6.67 -4.32 6.34 -5 6 C-2.25 1.125 -2.25 1.125 0 0 Z " fill="#202020" transform="translate(523,153)"/>
<path d="M0 0 C1.65 0 3.3 0 5 0 C5.33 0.66 5.66 1.32 6 2 C0.25 5 0.25 5 -2 5 C-1.34 3.35 -0.68 1.7 0 0 Z " fill="#E7E7E7" transform="translate(459,817)"/>
<path d="M0 0 C0.33 0.99 0.66 1.98 1 3 C-0.40445835 5.2636564 -2.1967913 7.0208685 -4 9 C-5.32 8.67 -6.64 8.34 -8 8 C-6.824375 7.6596875 -6.824375 7.6596875 -5.625 7.3125 C-2.78943005 6.22711327 -2.78943005 6.22711327 -1.75 3.4375 C-1.5025 2.633125 -1.255 1.82875 -1 1 C-0.67 0.67 -0.34 0.34 0 0 Z " fill="#C3C3C3" transform="translate(541,714)"/>
<path d="M0 0 C0 3.64478912 -0.85802506 5.09303401 -3 8 C-5.0625 8.875 -5.0625 8.875 -7 9 C-7.66 8.67 -8.32 8.34 -9 8 C-6.03 5.36 -3.06 2.72 0 0 Z " fill="#D3D3D3" transform="translate(922,534)"/>
<path d="M0 0 C0.99 0.33 1.98 0.66 3 1 C1.02 3.31 -0.96 5.62 -3 8 C-3.33 6.68 -3.66 5.36 -4 4 C-2.0625 1.75 -2.0625 1.75 0 0 Z " fill="#1A1A1A" transform="translate(674,376)"/>
<path d="M0 0 C2.125 0.9375 2.125 0.9375 4 2 C0.71536341 4.18975773 -2.20696275 4.99806563 -6 6 C-2.25 1.125 -2.25 1.125 0 0 Z " fill="#C5C5C5" transform="translate(361,320)"/>
<path d="M0 0 C1.38232443 1.62626404 2.71937515 3.2925002 4 5 C2.68 5.33 1.36 5.66 0 6 C-1.32 4.35 -2.64 2.7 -4 1 C-2 0 -2 0 0 0 Z " fill="#CBCBCB" transform="translate(396,316)"/>
<path d="M0 0 C0.66 0 1.32 0 2 0 C4.29648649 2.5614657 5 3.47967572 5 7 C4.01 6.67 3.02 6.34 2 6 C2 5.34 2 4.68 2 4 C0.68 3.34 -0.64 2.68 -2 2 C-1.34 1.34 -0.68 0.68 0 0 Z " fill="#DFDFDF" transform="translate(642,308)"/>
<path d="M0 0 C-0.33 0.99 -0.66 1.98 -1 3 C-1.99 3.33 -2.98 3.66 -4 4 C-4.33 4.66 -4.66 5.32 -5 6 C-6.32 5.67 -7.64 5.34 -9 5 C-9 4.34 -9 3.68 -9 3 C-2.25 0 -2.25 0 0 0 Z " fill="#D1D1D1" transform="translate(229,235)"/>
<path d="M0 0 C0.99 0.33 1.98 0.66 3 1 C-1.75 5.875 -1.75 5.875 -4 7 C-3.6875 4.625 -3.6875 4.625 -3 2 C-2.01 1.34 -1.02 0.68 0 0 Z " fill="#E2E2E2" transform="translate(739,126)"/>
<path d="M0 0 C0.99 0.33 1.98 0.66 3 1 C2.375 2.875 2.375 2.875 1 5 C-2.125 6.25 -2.125 6.25 -5 7 C-3.35 4.69 -1.7 2.38 0 0 Z " fill="#1B1B1B" transform="translate(735,751)"/>
<path d="M0 0 C3.7952131 1.49097658 5.61042731 3.75700849 8 7 C4.21388773 6.45912682 2.44599233 4.88277668 0 2 C0 1.34 0 0.68 0 0 Z " fill="#D6D6D6" transform="translate(334,666)"/>
<path d="M0 0 C5.875 4.625 5.875 4.625 7 8 C4 8 4 8 2.375 6.8125 C0.68587944 4.58593199 0.37047118 2.74148672 0 0 Z " fill="#202020" transform="translate(342,641)"/>
<path d="M0 0 C3.7952131 1.49097658 5.61042731 3.75700849 8 7 C5.25851328 6.62952882 3.41406801 6.31412056 1.1875 4.625 C0 3 0 3 0 0 Z " fill="#1F1F1F" transform="translate(327,627)"/>
<path d="M0 0 C1.32 0.33 2.64 0.66 4 1 C4 1.66 4 2.32 4 3 C4.99 3.33 5.98 3.66 7 4 C6.67 4.99 6.34 5.98 6 7 C3.95880212 5.38405168 1.95927063 3.7143618 0 2 C0 1.34 0 0.68 0 0 Z " fill="#131313" transform="translate(296,625)"/>
<path d="M0 0 C2 1 2 1 3 3 C2.01 3 1.02 3 0 3 C0 3.66 0 4.32 0 5 C-2.97 4.505 -2.97 4.505 -6 4 C-4.02610343 2.02610343 -2.56269497 1.04109483 0 0 Z " fill="#222222" transform="translate(536,577)"/>
<path d="M0 0 C-0.33 0.66 -0.66 1.32 -1 2 C-3.50390625 2.4140625 -3.50390625 2.4140625 -6.5625 2.625 C-7.57441406 2.69976563 -8.58632813 2.77453125 -9.62890625 2.8515625 C-10.41136719 2.90054688 -11.19382812 2.94953125 -12 3 C-4.82142857 -1.78571429 -4.82142857 -1.78571429 0 0 Z " fill="#CBCBCB" transform="translate(905,549)"/>
<path d="M0 0 C2 3 2 3 2 6 C-0.5 8.1875 -0.5 8.1875 -3 10 C-3.66 9.67 -4.32 9.34 -5 9 C-4.360625 8.071875 -3.72125 7.14375 -3.0625 6.1875 C-0.91377907 3.15780057 -0.91377907 3.15780057 0 0 Z " fill="#D2D2D2" transform="translate(450,539)"/>
<path d="M0 0 C2.31 1.98 4.62 3.96 7 6 C6.34 6.66 5.68 7.32 5 8 C2.5 5.6875 2.5 5.6875 0 3 C0 2.01 0 1.02 0 0 Z " fill="#111111" transform="translate(916,440)"/>
<path d="M0 0 C2.45823172 3.68734758 3.01242616 6.69699971 4 11 C2.68 10.67 1.36 10.34 0 10 C0 6.7 0 3.4 0 0 Z " fill="#C3C3C3" transform="translate(649,432)"/>
<path d="M0 0 C-0.75 1.9375 -0.75 1.9375 -2 4 C-4 4.875 -4 4.875 -6 5 C-6.66 4.34 -7.32 3.68 -8 3 C-2.25 0 -2.25 0 0 0 Z " fill="#D3D3D3" transform="translate(451,399)"/>
<path d="M0 0 C0.33 0.99 0.66 1.98 1 3 C-0.4001116 5.8002232 -2.26572551 6.56776098 -5 8 C-5.99 8 -6.98 8 -8 8 C-5.36 5.36 -2.72 2.72 0 0 Z " fill="#131313" transform="translate(310,339)"/>
<path d="M0 0 C2 1.375 2 1.375 4 3 C4 3.66 4 4.32 4 5 C4.66 5.33 5.32 5.66 6 6 C5.34 6.66 4.68 7.32 4 8 C2.35 6.02 0.7 4.04 -1 2 C-0.67 1.34 -0.34 0.68 0 0 Z " fill="#D9D9D9" transform="translate(672,338)"/>
<path d="M0 0 C0.66 0 1.32 0 2 0 C2.33 0.66 2.66 1.32 3 2 C3.99 2.33 4.98 2.66 6 3 C5.34 4.32 4.68 5.64 4 7 C2.35 5.02 0.7 3.04 -1 1 C-0.67 0.67 -0.34 0.34 0 0 Z " fill="#E1E1E1" transform="translate(823,129)"/>
<path d="M0 0 C1.98 1.65 3.96 3.3 6 5 C5.01 5.495 5.01 5.495 4 6 C4 6.66 4 7.32 4 8 C3.34 8 2.68 8 2 8 C2 6.68 2 5.36 2 4 C1.01 4 0.02 4 -1 4 C-0.67 2.68 -0.34 1.36 0 0 Z " fill="#D3D3D3" transform="translate(442,919)"/>
<path d="M0 0 C0.66 0 1.32 0 2 0 C0.50163895 3.11198065 -1.19933758 6.0534615 -3 9 C-3.66 8.34 -4.32 7.68 -5 7 C-4.21654285 5.82780457 -3.42297164 4.66236332 -2.625 3.5 C-2.18414063 2.8503125 -1.74328125 2.200625 -1.2890625 1.53125 C-0.65097656 0.77328125 -0.65097656 0.77328125 0 0 Z " fill="#DEDEDE" transform="translate(833,831)"/>
<path d="M0 0 C1.65 1.32 3.3 2.64 5 4 C4.67 4.99 4.34 5.98 4 7 C3.34 7 2.68 7 2 7 C2 6.34 2 5.68 2 5 C1.34 5 0.68 5 0 5 C0 3.35 0 1.7 0 0 Z " fill="#E3E3E3" transform="translate(396,568)"/>
<path d="M0 0 C2.72426311 2.35277269 3.8141763 4.62496331 5 8 C4.01 7.67 3.02 7.34 2 7 C2 6.34 2 5.68 2 5 C1.01 4.67 0.02 4.34 -1 4 C-0.67 2.68 -0.34 1.36 0 0 Z " fill="#CECECE" transform="translate(385,552)"/>
<path d="M0 0 C0.99 0 1.98 0 3 0 C2.5020163 3.73487777 2.12508244 5.81237635 0 9 C-1.125 3.375 -1.125 3.375 0 0 Z " fill="#D9D9D9" transform="translate(585,506)"/>
<path d="M0 0 C0.33 0.99 0.66 1.98 1 3 C0.01 4.485 0.01 4.485 -1 6 C-1.433125 5.505 -1.86625 5.01 -2.3125 4.5 C-3.99740483 2.66781808 -3.99740483 2.66781808 -7 3 C-7 2.34 -7 1.68 -7 1 C-2.25 0 -2.25 0 0 0 Z " fill="#181818" transform="translate(367,318)"/>
<path d="M0 0 C1.98 0.66 3.96 1.32 6 2 C5.67 2.99 5.34 3.98 5 5 C3.35 4.67 1.7 4.34 0 4 C0 2.68 0 1.36 0 0 Z " fill="#E0E0E0" transform="translate(459,159)"/>
<path d="M0 0 C0.66 0 1.32 0 2 0 C1.34 1.32 0.68 2.64 0 4 C-0.66 4 -1.32 4 -2 4 C-2.33 4.66 -2.66 5.32 -3 6 C-3.99 6 -4.98 6 -6 6 C-4 4 -2 2 0 0 Z " fill="#D5D5D5" transform="translate(179,142)"/>
<path d="M0 0 C1.32 0.33 2.64 0.66 4 1 C4 2.32 4 3.64 4 5 C0.7 4.01 -2.6 3.02 -6 2 C-2 1 -2 1 0 2 C0 1.34 0 0.68 0 0 Z " fill="#262626" transform="translate(796,137)"/>
<path d="M0 0 C0.66 0.33 1.32 0.66 2 1 C1.67 1.99 1.34 2.98 1 4 C-1.5625 5.1875 -1.5625 5.1875 -4 6 C-4.66 5.34 -5.32 4.68 -6 4 C-4.02 2.68 -2.04 1.36 0 0 Z " fill="#D0D0D0" transform="translate(472,65)"/>
<path d="M0 0 C0.66 0.33 1.32 0.66 2 1 C-1.07999946 4.67230705 -3.2482602 5.56802365 -8 6 C-5.33333333 4 -2.66666667 2 0 0 Z " fill="#232323" transform="translate(224,829)"/>
<path d="M0 0 C1 2 1 2 0.0625 5.125 C-0.288125 6.07375 -0.63875 7.0225 -1 8 C-1.99 7.01 -2.98 6.02 -4 5 C-2.68 3.35 -1.36 1.7 0 0 Z " fill="#272727" transform="translate(153,753)"/>
<path d="M0 0 C0.66 0 1.32 0 2 0 C2 1.98 2 3.96 2 6 C-0.475 5.01 -0.475 5.01 -3 4 C-1.625 2 -1.625 2 0 0 Z " fill="#E0E0E0" transform="translate(645,665)"/>
<path d="M0 0 C2.31 0 4.62 0 7 0 C7 0.66 7 1.32 7 2 C5.02 2.99 3.04 3.98 1 5 C0.67 3.35 0.34 1.7 0 0 Z " fill="#ECECEC" transform="translate(571,633)"/>
<path d="M0 0 C0.33 0.66 0.66 1.32 1 2 C-0.98 4.97 -0.98 4.97 -3 8 C-4.32 7.67 -5.64 7.34 -7 7 C-5.625 5.5 -5.625 5.5 -4 4 C-3.34 4 -2.68 4 -2 4 C-1.34 2.68 -0.68 1.36 0 0 Z " fill="#343434" transform="translate(658,620)"/>
<path d="M0 0 C3.625 0.375 3.625 0.375 7 1 C6.01 1.495 6.01 1.495 5 2 C5 2.66 5 3.32 5 4 C2.69 3.34 0.38 2.68 -2 2 C-1.34 1.34 -0.68 0.68 0 0 Z " fill="#1C1C1C" transform="translate(443,600)"/>
<path d="M0 0 C0.66 0.33 1.32 0.66 2 1 C0.35 2.65 -1.3 4.3 -3 6 C-5.475 5.01 -5.475 5.01 -8 4 C-5.31143836 2.20762558 -3.0466145 1.01553817 0 0 Z " fill="#2F2F2F" transform="translate(525,582)"/>
<path d="M0 0 C1.98 1.65 3.96 3.3 6 5 C4.02 5.99 4.02 5.99 2 7 C1.01 6.34 0.02 5.68 -1 5 C-0.67 3.35 -0.34 1.7 0 0 Z " fill="#DEDEDE" transform="translate(405,577)"/>
<path d="M0 0 C2.50298434 2.93828597 3.46930939 5.17902761 4 9 C2.35 8.67 0.7 8.34 -1 8 C-0.67 5.36 -0.34 2.72 0 0 Z " fill="#D1D1D1" transform="translate(315,569)"/>
<path d="M0 0 C0.66 0.33 1.32 0.66 2 1 C0.92598892 3.91517292 0.22189824 5.77810176 -2 8 C-2.33 7.01 -2.66 6.02 -3 5 C-1.5625 2.3125 -1.5625 2.3125 0 0 Z " fill="#1A1A1A" transform="translate(595,546)"/>
<path d="M0 0 C1.43739513 -0.02712066 2.87493863 -0.04645067 4.3125 -0.0625 C5.51326172 -0.07990234 5.51326172 -0.07990234 6.73828125 -0.09765625 C9 0 9 0 12 1 C11.67 1.99 11.34 2.98 11 4 C7.37 3.01 3.74 2.02 0 1 C0 0.67 0 0.34 0 0 Z " fill="#292929" transform="translate(884,449)"/>
<path d="M0 0 C0.66 0.33 1.32 0.66 2 1 C1.34 2.32 0.68 3.64 0 5 C-0.66 5 -1.32 5 -2 5 C-2 5.66 -2 6.32 -2 7 C-2.66 7 -3.32 7 -4 7 C-2.92598892 4.08482708 -2.22189824 2.22189824 0 0 Z " fill="#2B2B2B" transform="translate(261,441)"/>
<path d="M0 0 C2.15377564 2.62198774 3.40072174 4.64404172 4 8 C3.01 7.67 2.02 7.34 1 7 C0.67 6.34 0.34 5.68 0 5 C-0.99 5.495 -0.99 5.495 -2 6 C-1.34 4.02 -0.68 2.04 0 0 Z " fill="#1C1C1C" transform="translate(595,429)"/>
<path d="M0 0 C0.66 0.33 1.32 0.66 2 1 C1.34 3.97 0.68 6.94 0 10 C-2 6 -2 6 -1.125 2.75 C-0.75375 1.8425 -0.3825 0.935 0 0 Z " fill="#1C1C1C" transform="translate(331,424)"/>
<path d="M0 0 C1.65 0.33 3.3 0.66 5 1 C3.02 3.97 3.02 3.97 1 7 C0.34 6.01 -0.32 5.02 -1 4 C-0.34 4 0.32 4 1 4 C0.67 2.68 0.34 1.36 0 0 Z " fill="#E5E5E5" transform="translate(401,400)"/>
<path d="M0 0 C0.66 0 1.32 0 2 0 C2 0.66 2 1.32 2 2 C2.66 2 3.32 2 4 2 C4.33 1.34 4.66 0.68 5 0 C5 1.65 5 3.3 5 5 C4.01 5 3.02 5 2 5 C0.3125 3 0.3125 3 -1 1 C-0.67 0.67 -0.34 0.34 0 0 Z " fill="#EEEEEE" transform="translate(330,370)"/>
<path d="M0 0 C3.79588866 0.54226981 5.47211993 2.20127563 8 5 C7.01 5.33 6.02 5.66 5 6 C2.3125 4.1875 2.3125 4.1875 0 2 C0 1.34 0 0.68 0 0 Z " fill="#E6E6E6" transform="translate(372,332)"/>
<path d="M0 0 C2.97 0.495 2.97 0.495 6 1 C5.67 1.99 5.34 2.98 5 4 C2.69 3.67 0.38 3.34 -2 3 C-1.34 2.01 -0.68 1.02 0 0 Z " fill="#272727" transform="translate(532,323)"/>
<path d="M0 0 C0.99 0.33 1.98 0.66 3 1 C0.36 2.65 -2.28 4.3 -5 6 C-5.66 5.01 -6.32 4.02 -7 3 C-5.5459375 2.5359375 -5.5459375 2.5359375 -4.0625 2.0625 C-1.15934208 1.30476658 -1.15934208 1.30476658 0 0 Z " fill="#EBEBEB" transform="translate(513,134)"/>
<path d="M0 0 C4 4.625 4 4.625 4 8 C3.01 8 2.02 8 1 8 C0.26919734 6.02253397 -0.39421747 4.01927511 -1 2 C-0.67 1.34 -0.34 0.68 0 0 Z " fill="#D1D1D1" transform="translate(433,906)"/>
<path d="M0 0 C0.99 0.66 1.98 1.32 3 2 C2.34 3.65 1.68 5.3 1 7 C-1.1385485 4.8614515 -1.42655063 3.86724686 -2 1 C-1.34 0.67 -0.68 0.34 0 0 Z " fill="#EBEBEB" transform="translate(259,767)"/>
<path d="M0 0 C0.66 0.33 1.32 0.66 2 1 C0.35 2.65 -1.3 4.3 -3 6 C-3.99 5.01 -4.98 4.02 -6 3 C-4.03533587 1.93224776 -2.03144641 0.93446535 0 0 Z " fill="#242424" transform="translate(754,738)"/>
<path d="M0 0 C0.66 0.33 1.32 0.66 2 1 C2 1.99 2 2.98 2 4 C-0.31 4.66 -2.62 5.32 -5 6 C-3.35 4.02 -1.7 2.04 0 0 Z " fill="#CBCBCB" transform="translate(380,673)"/>
<path d="M0 0 C1.32 0 2.64 0 4 0 C4.33 0.66 4.66 1.32 5 2 C6.64363134 2.72159424 8.31050386 3.39351421 10 4 C9.67 4.66 9.34 5.32 9 6 C5.06326356 4.68775452 2.77280706 3.08089673 0 0 Z " fill="#C8C8C8" transform="translate(429,568)"/>
<path d="M0 0 C0.99 0.33 1.98 0.66 3 1 C4.1875 3.5625 4.1875 3.5625 5 6 C2.525 5.01 2.525 5.01 0 4 C0 2.68 0 1.36 0 0 Z " fill="#191919" transform="translate(402,539)"/>
<path d="M0 0 C0.625 1.875 0.625 1.875 1 4 C-1.35953094 6.35953094 -2.77895617 6.49141413 -6 7 C-5.34 6.01 -4.68 5.02 -4 4 C-3.34 4 -2.68 4 -2 4 C-1.34 2.68 -0.68 1.36 0 0 Z " fill="#313131" transform="translate(909,515)"/>
<path d="M0 0 C2.31 0.66 4.62 1.32 7 2 C5.1875 3.5625 5.1875 3.5625 3 5 C2.01 4.67 1.02 4.34 0 4 C0 2.68 0 1.36 0 0 Z " fill="#E1E1E1" transform="translate(886,450)"/>
<path d="M0 0 C-1.98 1.32 -3.96 2.64 -6 4 C-6 2.68 -6 1.36 -6 0 C-3.50907189 -1.24546405 -2.58919267 -0.7767578 0 0 Z " fill="#1D1D1D" transform="translate(432,410)"/>
<path d="M0 0 C0.33 0 0.66 0 1 0 C1.36923077 5.53846154 1.36923077 5.53846154 -0.5 7.875 C-1.2425 8.431875 -1.2425 8.431875 -2 9 C-3 6 -3 6 -1.5625 2.8125 C-1.046875 1.884375 -0.53125 0.95625 0 0 Z " fill="#D3D3D3" transform="translate(342,406)"/>
<path d="M0 0 C2.125 0.375 2.125 0.375 4 1 C4 1.66 4 2.32 4 3 C4.66 3.33 5.32 3.66 6 4 C5.67 4.66 5.34 5.32 5 6 C1.535 4.02 1.535 4.02 -2 2 C-1.34 1.34 -0.68 0.68 0 0 Z " fill="#222222" transform="translate(540,402)"/>
<path d="M0 0 C2.475 0.495 2.475 0.495 5 1 C5.33 1.99 5.66 2.98 6 4 C5.01 4.66 4.02 5.32 3 6 C2.01 4.02 1.02 2.04 0 0 Z " fill="#191919" transform="translate(232,152)"/>
<path d="M0 0 C0.66 0.33 1.32 0.66 2 1 C0.515 3.475 0.515 3.475 -1 6 C-2.65 5.67 -4.3 5.34 -6 5 C-5.195625 4.360625 -4.39125 3.72125 -3.5625 3.0625 C-1.7249496 1.59396498 -1.7249496 1.59396498 0 0 Z " fill="#D1D1D1" transform="translate(816,848)"/>
<path d="M0 0 C0.33 0.99 0.66 1.98 1 3 C-0.65 4.65 -2.3 6.3 -4 8 C-4.66 7.67 -5.32 7.34 -6 7 C-4.02 4.69 -2.04 2.38 0 0 Z " fill="#D4D4D4" transform="translate(251,834)"/>
<path d="M0 0 C0.99 0.66 1.98 1.32 3 2 C1.35 3.65 -0.3 5.3 -2 7 C-2 5.02 -2 3.04 -2 1 C-1.34 0.67 -0.68 0.34 0 0 Z " fill="#DDDDDD" transform="translate(441,832)"/>
<path d="M0 0 C0.99 0.33 1.98 0.66 3 1 C1.35 2.65 -0.3 4.3 -2 6 C-2.66 5.67 -3.32 5.34 -4 5 C-3.67 4.01 -3.34 3.02 -3 2 C-2.01 2 -1.02 2 0 2 C0 1.34 0 0.68 0 0 Z " fill="#DFDFDF" transform="translate(741,743)"/>
<path d="M0 0 C2.0625 0.4375 2.0625 0.4375 4 1 C2.875 2.5625 2.875 2.5625 1 4 C-2.1875 3.6875 -2.1875 3.6875 -5 3 C-4.360625 2.690625 -3.72125 2.38125 -3.0625 2.0625 C-1.06389179 1.1654837 -1.06389179 1.1654837 0 0 Z " fill="#2D2D2D" transform="translate(181,735)"/>
<path d="M0 0 C0.33 0.66 0.66 1.32 1 2 C-0.98 4.97 -0.98 4.97 -3 8 C-3.99 7.34 -4.98 6.68 -6 6 C-5.38125 5.7525 -4.7625 5.505 -4.125 5.25 C-1.64931313 3.79371361 -1.04874998 2.62187494 0 0 Z " fill="#313131" transform="translate(642,636)"/>
<path d="M0 0 C0 0.66 0 1.32 0 2 C1.32 1.67 2.64 1.34 4 1 C3.67 2.32 3.34 3.64 3 5 C0.08482708 3.92598892 -1.77810176 3.22189824 -4 1 C-2 0 -2 0 0 0 Z " fill="#D8D8D8" transform="translate(405,633)"/>
<path d="M0 0 C0.33 0.66 0.66 1.32 1 2 C0.0625 4.625 0.0625 4.625 -1 7 C-2.32 6.67 -3.64 6.34 -5 6 C-3.35 4.02 -1.7 2.04 0 0 Z " fill="#D0D0D0" transform="translate(335,601)"/>
<path d="M0 0 C0 0.99 0 1.98 0 3 C-2.97 2.67 -5.94 2.34 -9 2 C-9 1.67 -9 1.34 -9 1 C-5.94152152 0.45627049 -3.11227195 0 0 0 Z " fill="#CFCFCF" transform="translate(471,584)"/>
<path d="M0 0 C0 3 0 3 -1.5 4.6875 C-1.995 5.120625 -2.49 5.55375 -3 6 C-3.99 5.67 -4.98 5.34 -6 5 C-4.02 3.35 -2.04 1.7 0 0 Z " fill="#CECECE" transform="translate(577,575)"/>
<path d="M0 0 C0.66 0.33 1.32 0.66 2 1 C1.09456151 3.71631546 0.07525194 6.34771188 -1 9 C-1.66 8.34 -2.32 7.68 -3 7 C-2.01 4.69 -1.02 2.38 0 0 Z " fill="#CCCCCC" transform="translate(600,540)"/>
<path d="M0 0 C0.99 0.33 1.98 0.66 3 1 C1.35 2.65 -0.3 4.3 -2 6 C-2.33 5.01 -2.66 4.02 -3 3 C-2.01 2.01 -1.02 1.02 0 0 Z " fill="#1B1B1B" transform="translate(915,537)"/>
<path d="M0 0 C1.65 1.65 3.3 3.3 5 5 C4.67 5.66 4.34 6.32 4 7 C1.86906094 5.93453047 0.63412443 4.70840281 -1 3 C-0.67 2.01 -0.34 1.02 0 0 Z " fill="#D2D2D2" transform="translate(826,528)"/>
<path d="M0 0 C4.875 4.75 4.875 4.75 6 7 C3 7 3 7 0.8125 5 C0.214375 4.34 -0.38375 3.68 -1 3 C-0.67 2.01 -0.34 1.02 0 0 Z " fill="#313131" transform="translate(842,512)"/>
<path d="M0 0 C0.99 0 1.98 0 3 0 C3 0.66 3 1.32 3 2 C3.66 2 4.32 2 5 2 C4.34 3.65 3.68 5.3 3 7 C1.25372522 4.38058783 0.61277612 2.96175123 0 0 Z " fill="#131313" transform="translate(817,510)"/>
<path d="M0 0 C0.66 0.33 1.32 0.66 2 1 C1.34 2.98 0.68 4.96 0 7 C-0.99 7 -1.98 7 -3 7 C-1.125 2.25 -1.125 2.25 0 0 Z " fill="#E2E2E2" transform="translate(69,466)"/>
<path d="M0 0 C0.99 0.66 1.98 1.32 3 2 C1.71034824 3.37562854 0.37310707 4.70766393 -1 6 C-1.66 6 -2.32 6 -3 6 C-1.125 1.125 -1.125 1.125 0 0 Z " fill="#E2E2E2" transform="translate(828,445)"/>
<path d="M0 0 C0.66 0.33 1.32 0.66 2 1 C1.75 2.875 1.75 2.875 1 5 C-1.0625 6.25 -1.0625 6.25 -3 7 C-1.125 1.125 -1.125 1.125 0 0 Z " fill="#222222" transform="translate(386,426)"/>
<path d="M0 0 C0.68707555 2.49064888 1 4.37886292 1 7 C-0.32 7.33 -1.64 7.66 -3 8 C-1.125 2.25 -1.125 2.25 0 0 Z " fill="#D5D5D5" transform="translate(338,414)"/>
<path d="M0 0 C1.5625 1.125 1.5625 1.125 3 3 C2.6875 6.1875 2.6875 6.1875 2 9 C1.67 8.01 1.34 7.02 1 6 C0.34 5.67 -0.32 5.34 -1 5 C-0.67 3.35 -0.34 1.7 0 0 Z " fill="#DADADA" transform="translate(318,393)"/>
<path d="M0 0 C0 0.66 0 1.32 0 2 C-3.66305234 2.74926071 -6.42355152 3.2380014 -10 2 C-6.38026598 0.68373308 -3.90432869 0 0 0 Z " fill="#C4C4C4" transform="translate(466,394)"/>
<path d="M0 0 C0.33 0.99 0.66 1.98 1 3 C-0.65 4.32 -2.3 5.64 -4 7 C-4.66 6.67 -5.32 6.34 -6 6 C-4.02 4.02 -2.04 2.04 0 0 Z " fill="#CBCBCB" transform="translate(665,389)"/>
<path d="M0 0 C2.5 1.8125 2.5 1.8125 5 4 C5 4.99 5 5.98 5 7 C3 7 3 7 0.875 5 C0.25625 4.34 -0.3625 3.68 -1 3 C-0.67 2.01 -0.34 1.02 0 0 Z " fill="#EBEBEB" transform="translate(160,228)"/>
<path d="M0 0 C0.33 0 0.66 0 1 0 C1.25 2.3125 1.25 2.3125 1 5 C-1 6.8125 -1 6.8125 -3 8 C-3.66 7.67 -4.32 7.34 -5 7 C-4.19152271 5.83054208 -3.37810888 4.66449539 -2.5625 3.5 C-2.11003906 2.8503125 -1.65757812 2.200625 -1.19140625 1.53125 C-0.79824219 1.0259375 -0.40507812 0.520625 0 0 Z " fill="#CACACA" transform="translate(253,212)"/>
<path d="M0 0 C1.32 1.65 2.64 3.3 4 5 C3.34 5.66 2.68 6.32 2 7 C1.01 6.67 0.02 6.34 -1 6 C-0.67 4.02 -0.34 2.04 0 0 Z " fill="#E5E5E5" transform="translate(724,209)"/>
<path d="M0 0 C2.125 0.9375 2.125 0.9375 4 2 C0.25 5 0.25 5 -2 5 C-2 3.68 -2 2.36 -2 1 C-1.34 0.67 -0.68 0.34 0 0 Z " fill="#E5E5E5" transform="translate(803,208)"/>
</svg>
